<?xml version="1.0"?>
<svg xmlns:rdf="http://www.w3.org/1999/02/22-rdf-syntax-ns#" xmlns="http://www.w3.org/2000/svg" xmlns:cc="http://creativecommons.org/ns#" xmlns:xlink="http://www.w3.org/1999/xlink" xmlns:dc="http://purl.org/dc/elements/1.1/" xmlns:svg="http://www.w3.org/2000/svg" id="svg2" viewBox="0 0 750 750" version="1.0">
  <defs id="defs4">
    <linearGradient id="linearGradient9197">
      <stop id="stop9199" stop-color="#fff" offset="0"/>
      <stop id="stop9201" stop-color="#fff" stop-opacity="0" offset="1"/>
    </linearGradient>
    <marker id="marker3354" markerWidth="7.3790302" markerHeight="7.6209602" orient="auto">
      <path id="path3350" fill="#373737" d="m-0.000005-3.8105l3.6895 7.621h-7.379l3.6895-7.621z"/>
    </marker>
    <clipPath id="clipPath8518" clipPathUnits="userSpaceOnUse">
      <path id="path8520" fill="#888" d="m147.05 182.9c-27.67 0-49.96 22.29-49.96 49.96v2.68h19.56v-1.81c0-18.28 16.58-32.96 37.21-32.96h20.03v-17.87h-26.84z"/>
    </clipPath>
    <filter id="filter9163">
      <feGaussianBlur id="feGaussianBlur9165" stdDeviation="8.4834375"/>
    </filter>
    <filter id="filter9193" y="-.17293" width="1.0557" x="-.027868" height="1.3459">
      <feGaussianBlur id="feGaussianBlur9195" stdDeviation="3.7130863"/>
    </filter>
    <linearGradient id="linearGradient9368" x1="396.65" xlink:href="#linearGradient9197" gradientUnits="userSpaceOnUse" y1="579.07" gradientTransform="translate(-83.484 -119.07)" x2="396.65" y2="630.6"/>
    <radialGradient id="radialGradient9370" gradientUnits="userSpaceOnUse" cy="466.69" cx="384.83" gradientTransform="matrix(.77590 .0073665 -.0059431 .62599 97.909 72.061)" r="348.51">
      <stop id="stop9123" stop-color="#ccc" offset="0"/>
      <stop id="stop9125" stop-color="#5895ac" stop-opacity="0" offset="1"/>
    </radialGradient>
    <linearGradient id="linearGradient9372" x1="396.65" xlink:href="#linearGradient9197" gradientUnits="userSpaceOnUse" x2="396.65" y1="579.07" y2="630.6"/>
    <linearGradient id="linearGradient9374" x1="396.65" xlink:href="#linearGradient9197" gradientUnits="userSpaceOnUse" y1="579.07" gradientTransform="translate(168.34 -79.798)" x2="396.65" y2="630.6"/>
    <linearGradient id="linearGradient9376" x1="396.65" xlink:href="#linearGradient9197" gradientUnits="userSpaceOnUse" y1="579.07" gradientTransform="translate(258.66 105.38)" x2="396.65" y2="630.6"/>
    <linearGradient id="linearGradient2650" x1="739.03" gradientUnits="userSpaceOnUse" y1="378.62" gradientTransform="matrix(.93792 0 0 .93792 27.54 -6.7319)" x2="739.03" y2="812.28">
      <stop id="stop9001" offset="0"/>
      <stop id="stop9003" stop-opacity="0" offset="1"/>
    </linearGradient>
  </defs>
  <g id="layer1" transform="translate(-10.619 -29.247)">
    <path id="path9137" opacity=".14108" filter="url(#filter9163)" transform="matrix(1.0079 0 0 .93792 .14555 -6.7319)" d="m341.91 812.28c-0.01-0.49-0.03-0.97-0.03-1.47v-432.19h97.22v433.66h-97.19zm35.81-6.87h25.53c13.72 0 24.78-11.06 24.78-24.79v-1.34h-75.09v1.34c0 13.73 11.06 24.79 24.78 24.79zm-24.9-0.04c2.31 0 4.18-1.87 4.18-4.18 0-2.32-1.87-4.19-4.18-4.19-2.32 0-4.22 1.87-4.22 4.19 0 2.31 1.9 4.18 4.22 4.18zm75.09 0c2.31 0 4.22-1.87 4.22-4.18 0-2.32-1.91-4.19-4.22-4.19-2.32 0-4.19 1.87-4.19 4.19 0 2.31 1.87 4.18 4.19 4.18zm-122.75-34.59c-24.79 0-44.72-19.93-44.72-44.72v-324.53h68.81v369.25h-24.09zm146.19 0v-369.25h68.81v324.53c0 24.79-19.93 44.72-44.72 44.72h-24.09zm-98.41-2.06h6.38v-332.22h-6.38v332.22zm15.09 0h18.5v-332.22h-18.5v332.22zm29.72 0h15.19v-332.22h-15.19v332.22zm23.88 0h6.4v-332.22h-6.4v332.22zm-109.94-21h8.22v-27.41h-10.44v27.19c0.73 0.11 1.46 0.22 2.22 0.22zm149 0h8.22c0.76 0 1.49-0.11 2.22-0.22v-27.19h-10.44v27.41zm-173.03-0.03h8.19v-27.38h-23.41v12.16c0 8.43 6.79 15.22 15.22 15.22zm197.09 0h8.19c8.43 0 15.22-6.79 15.22-15.22v-12.16h-23.41v27.38zm-197.09-38.28h8.19v-27.38h-23.41v12.16c0 8.43 6.79 15.22 15.22 15.22zm24.03 0h8.22v-27.41h-10.44v27.22c0.73 0.11 1.46 0.19 2.22 0.19zm149 0h8.22c0.76 0 1.49-0.08 2.22-0.19v-27.22h-10.44v27.41zm24.06 0h8.19c8.43 0 15.22-6.79 15.22-15.22v-12.16h-23.41v27.38zm-249.93-34.75c-18.05 0-32.57-14.53-32.57-32.57v-228.56h50.1v261.13h-17.53zm293.43 0v-261.13h50.1v228.56c0 18.04-14.53 32.57-32.57 32.57h-17.53zm-240.59-3.54h8.19v-27.37h-23.41v12.16c0 8.43 6.79 15.22 15.22 15.21zm24.03 0h8.22v-27.37h-10.44v27.16c0.73 0.1 1.46 0.21 2.22 0.21zm149 0h8.22c0.76 0 1.49-0.11 2.22-0.21v-27.16h-10.44v27.37zm24.06 0h8.19c8.43 0.01 15.22-6.78 15.22-15.21v-12.16h-23.41v27.37zm-250.37-2.46h13.31v-26.1h-38.09v1.31c0 13.73 11.06 24.79 24.78 24.79zm298.5 0h13.34c13.72 0 24.78-11.06 24.78-24.79v-1.31h-38.12v26.1zm-245.22-35.82h8.19v-27.4h-23.41v12.18c0 8.44 6.79 15.22 15.22 15.22zm24.03 0h8.22v-27.4h-10.44v27.22c0.73 0.1 1.46 0.18 2.22 0.18zm149 0h8.22c0.76 0 1.49-0.08 2.22-0.18v-27.22h-10.44v27.4zm24.06 0h8.19c8.43 0 15.22-6.78 15.22-15.22v-12.18h-23.41v27.4zm-264.87-5.28h5.56v-18.53h-15.84v8.25c0 5.7 4.58 10.28 10.28 10.28zm335.28 0h5.56c5.7 0 10.28-4.58 10.28-10.28v-8.25h-15.84v18.53zm-316.97-3.47c2.32 0 4.19-1.87 4.19-4.18 0-2.32-1.87-4.22-4.19-4.22s-4.22 1.9-4.22 4.22c0 2.31 1.9 4.18 4.22 4.18zm302.87 0c2.32 0 4.22-1.87 4.22-4.18 0-2.32-1.9-4.22-4.22-4.22-2.31 0-4.18 1.9-4.18 4.22 0 2.31 1.87 4.18 4.18 4.18zm-321.18-22.4h5.56v-18.53h-15.84v8.25c0 5.7 4.58 10.28 10.28 10.28zm335.28 0h5.56c5.7 0 10.28-4.58 10.28-10.28v-8.25h-15.84v18.53zm-316.97-3.6c2.32 0 4.19-1.87 4.19-4.18 0-2.32-1.87-4.22-4.19-4.22s-4.22 1.9-4.22 4.22c0 2.31 1.9 4.18 4.22 4.18zm302.87 0c2.32 0 4.22-1.87 4.22-4.18 0-2.32-1.9-4.22-4.22-4.22-2.31 0-4.18 1.9-4.18 4.22 0 2.31 1.87 4.18 4.18 4.18zm-253.4-3.53h8.19v-27.4h-23.41v12.18c0 8.44 6.79 15.22 15.22 15.22zm24.03 0h8.22v-27.4h-10.44v27.21c0.73 0.11 1.46 0.19 2.22 0.19zm149 0h8.22c0.76 0 1.49-0.08 2.22-0.19v-27.21h-10.44v27.4zm24.06 0h8.19c8.43 0 15.22-6.78 15.22-15.22v-12.18h-23.41v27.4zm-264.87-18.75h5.56v-18.53h-15.84v8.25c0 5.7 4.58 10.28 10.28 10.28zm335.28 0h5.56c5.7 0 10.28-4.58 10.28-10.28v-8.25h-15.84v18.53zm-316.97-3.72c2.32 0 4.19-1.87 4.19-4.18 0-2.32-1.87-4.22-4.19-4.22s-4.22 1.9-4.22 4.22c0 2.31 1.9 4.18 4.22 4.18zm302.87 0c2.32 0 4.22-1.87 4.22-4.18 0-2.32-1.9-4.22-4.22-4.22-2.31 0-4.18 1.9-4.18 4.22 0 2.31 1.87 4.18 4.18 4.18zm-253.4-15.81h8.19v-27.41h-23.41v12.19c0 8.44 6.79 15.22 15.22 15.22zm24.03 0h8.22v-27.41h-10.44v27.19c0.73 0.11 1.46 0.22 2.22 0.22zm149 0h8.22c0.76 0 1.49-0.11 2.22-0.22v-27.19h-10.44v27.41zm24.06 0h8.19c8.43 0 15.22-6.78 15.22-15.22v-12.19h-23.41v27.41zm-264.87-6.34h5.56v-18.53h-15.84v8.25c0 5.7 4.58 10.28 10.28 10.28zm335.28 0h5.56c5.7 0 10.28-4.58 10.28-10.28v-8.25h-15.84v18.53zm-316.97-3.85c2.32 0 4.19-1.87 4.19-4.18 0-2.32-1.87-4.22-4.19-4.22s-4.22 1.9-4.22 4.22c0 2.31 1.9 4.18 4.22 4.18zm302.87 0c2.32 0 4.22-1.87 4.22-4.18 0-2.32-1.9-4.22-4.22-4.22-2.31 0-4.18 1.9-4.18 4.22 0 2.31 1.87 4.18 4.18 4.18zm-419.53-6.09c-10.37 0-18.72-8.35-18.71-18.72v-10.09h86.56v28.81h-67.85zm469.69 0v-28.81h86.56v10.09c0 10.37-8.34 18.72-18.72 18.72h-67.84zm-371.34-15.94h5.56v-18.53h-15.84v8.22c0 5.7 4.58 10.31 10.28 10.31zm335.28 0h5.56c5.7 0 10.28-4.61 10.28-10.31v-8.22h-15.84v18.53zm-316.97-3.97c2.32 0 4.19-1.87 4.19-4.18 0-2.32-1.87-4.22-4.19-4.22s-4.22 1.9-4.22 4.22c0 2.31 1.9 4.18 4.22 4.18zm302.87 0c2.32 0 4.22-1.87 4.22-4.18 0-2.32-1.9-4.22-4.22-4.22-2.31 0-4.18 1.9-4.18 4.22 0 2.31 1.87 4.18 4.18 4.18zm-253.4-2.09h8.19v-27.41h-23.41v12.19c0 8.43 6.79 15.22 15.22 15.22zm197.09 0h8.19c8.43 0 15.22-6.79 15.22-15.22v-12.19h-23.41v27.41zm-173.06-0.03h8.22v-27.38h-10.44v27.19c0.73 0.11 1.46 0.19 2.22 0.19zm149 0h8.22c0.76 0 1.49-0.08 2.22-0.19v-27.19h-10.44v27.38zm-371.88-13.81c-10.373 0-18.719-8.35-18.719-18.72v-10.07h119.28v28.79h-100.56zm502.4 0v-28.79h119.28v10.07c0 10.37-8.34 18.72-18.72 18.72h-100.56zm-371.34-5.97h5.56v-18.53h-15.84v8.21c0 5.71 4.58 10.32 10.28 10.32zm335.28 0h5.56c5.7 0 10.28-4.61 10.28-10.32v-8.21h-15.84v18.53zm-316.97-4.1c2.32 0 4.19-1.87 4.19-4.18 0-2.32-1.87-4.22-4.19-4.22s-4.22 1.9-4.22 4.22c0 2.31 1.9 4.18 4.22 4.18zm302.87 0c2.32 0 4.22-1.87 4.22-4.18 0-2.32-1.9-4.22-4.22-4.22-2.31 0-4.18 1.9-4.18 4.22 0 2.31 1.87 4.18 4.18 4.18zm-253.4-14.37h8.19v-27.41h-23.41v12.16c0 8.43 6.79 15.25 15.22 15.25zm24.03 0h8.22v-27.41h-10.44v27.19c0.73 0.11 1.46 0.22 2.22 0.22zm149 0h8.22c0.76 0 1.49-0.11 2.22-0.22v-27.19h-10.44v27.41zm24.06 0h8.19c8.43 0 15.22-6.82 15.22-15.25v-12.16h-23.41v27.41zm-264.87-7.44h5.56v-18.5h-15.84v8.22c0 5.7 4.58 10.28 10.28 10.28zm335.28 0h5.56c5.7 0 10.28-4.58 10.28-10.28v-8.22h-15.84v18.5zm-494.88-3.94c-10.373 0-18.719-8.34-18.719-18.72v-10.06h147.82v28.78h-129.1zm530.94 0v-28.78h147.81v10.06c0 10.38-8.34 18.72-18.71 18.72h-129.1zm-353.03-0.25c2.32 0 4.19-1.87 4.19-4.18 0-2.32-1.87-4.22-4.19-4.22s-4.22 1.9-4.22 4.22c0 2.31 1.9 4.18 4.22 4.18zm302.87 0c2.32 0 4.22-1.87 4.22-4.18 0-2.32-1.9-4.22-4.22-4.22-2.31 0-4.18 1.9-4.18 4.22 0 2.31 1.87 4.18 4.18 4.18zm-5.9-39.25h1.9v-6.43h-5.5v2.87c0.01 1.98 1.62 3.56 3.6 3.56zm3.81 0h1.94c1.98 0 3.56-1.58 3.56-3.56v-2.87h-5.5v6.43zm-329.41-1.43h1.94v-6.44h-5.5v2.84c0 1.99 1.58 3.6 3.56 3.6zm3.85 0h1.91c1.98 0 3.59-1.61 3.59-3.6v-2.84h-5.5v6.44zm337.87-1.16c1.22 0 2.19-0.97 2.19-2.19s-0.97-2.22-2.19-2.22c-1.21 0-2.22 1-2.22 2.22 0.01 1.22 1.01 2.19 2.22 2.19zm10.07 0c1.21 0 2.21-0.97 2.21-2.19 0.01-1.22-1-2.22-2.21-2.22-1.22 0-2.22 1-2.22 2.22s1 2.19 2.22 2.19zm10.06 0c1.22 0 2.22-0.97 2.22-2.19s-1-2.22-2.22-2.22-2.19 1-2.19 2.22 0.97 2.19 2.19 2.19zm-345.72-1.44c1.22 0 2.22-0.97 2.22-2.19 0-1.21-1-2.21-2.22-2.21s-2.19 1-2.19 2.21c0 1.22 0.97 2.19 2.19 2.19zm10.09 0c1.22 0 2.19-0.97 2.19-2.19 0-1.21-0.97-2.21-2.19-2.21-1.21 0-2.22 1-2.22 2.21 0 1.22 1.01 2.19 2.22 2.19zm10.07 0c1.21 0 2.21-0.97 2.21-2.19 0.01-1.21-1-2.21-2.21-2.21-1.22 0-2.22 1-2.22 2.21 0 1.22 1 2.19 2.22 2.19zm285.71-3.25h5.5v-3.25h-5.5v3.25zm7.41 0h5.5v-3.25h-5.5v3.25zm-78.78-1.12c0.17 0.01 0.33 0 0.5 0h2.69v-8.94h-7.66v3.97c0 2.58 1.96 4.71 4.47 4.97zm5.81 0h2.69c2.76 0 4.97-2.22 4.97-4.97v-3.97h-7.66v8.94zm-260-0.32h5.5v-3.28h-5.5v3.28zm7.41 0h5.5v-3.28h-5.5v3.28zm57.37-0.71h2.69v-8.94h-7.65v3.97c0 2.75 2.21 4.97 4.96 4.97zm5.32 0h2.68c2.76 0 4.97-2.22 4.97-4.97v-3.97h-7.65v8.94zm205.31-1.41c1.65 0 3-1.35 3-3s-1.35-2.97-3-2.97-3 1.32-3 2.97 1.35 3 3 3zm13.65 0c1.65 0 2.97-1.35 2.97-3s-1.32-2.97-2.97-2.97c-1.64 0-3 1.32-3 2.97s1.36 3 3 3zm13.63 0c1.65 0 3-1.35 3-3s-1.35-2.97-3-2.97-2.97 1.32-2.97 2.97 1.32 3 2.97 3zm-217.19-1.03c1.65 0 2.97-1.35 2.97-3s-1.32-3-2.97-3-3 1.35-3 3 1.35 3 3 3zm13.66 0c1.65 0 2.97-1.35 2.97-3s-1.32-3-2.97-3-3 1.35-3 3 1.35 3 3 3zm13.62 0c1.65 0 3-1.35 3-3s-1.35-3-3-3-2.96 1.35-2.96 3 1.31 3 2.96 3zm136.94-6.66h7.66v-4.5h-7.66v4.5zm10.28 0h7.66v-4.5h-7.66v4.5zm-200.18-1.03h7.65v-4.53h-7.65v4.53zm10.28 0h7.65v-4.53h-7.65v4.53zm79.81-7.84h3.59v-12h-10.28v5.34c0 3.7 2.99 6.66 6.69 6.66zm7.12 0h3.6c3.7 0 6.69-2.96 6.69-6.66v-5.34h-10.29v12zm22.94-3.97c2.32 0 4.22-1.9 4.22-4.22s-1.9-4.19-4.22-4.19c-2.31 0-4.19 1.87-4.19 4.19s1.88 4.22 4.19 4.22zm19.16 0c2.31 0 4.22-1.9 4.22-4.22s-1.91-4.19-4.22-4.19c-2.32 0-4.19 1.87-4.19 4.19s1.87 4.22 4.19 4.22zm19.19 0c2.31 0 4.18-1.9 4.18-4.22s-1.87-4.19-4.18-4.19c-2.32 0-4.22 1.87-4.22 4.19s1.9 4.22 4.22 4.22zm-75.1-9.63h10.28v-6.06h-10.28v6.06zm13.81 0h10.29v-6.06h-10.29v6.06z"/>
    <path id="path8997" opacity=".28216" fill="url(#linearGradient2650)" d="m348.22 755.12c-0.01-0.47-0.03-0.91-0.03-1.38v-405.35h91.19v406.73h-91.16zm33.59-6.45h23.95c12.87 0 23.24-10.37 23.24-23.24v-1.26h-70.43v1.26c0 12.87 10.37 23.24 23.24 23.24zm-23.36-0.03c2.17 0 3.93-1.75 3.93-3.93 0-2.17-1.76-3.92-3.93-3.92s-3.96 1.75-3.96 3.92c0 2.18 1.79 3.93 3.96 3.93zm70.43 0c2.17 0 3.96-1.75 3.96-3.93 0-2.17-1.79-3.92-3.96-3.92s-3.92 1.75-3.92 3.92c0 2.18 1.75 3.93 3.92 3.93zm-115.13-32.44c-23.24 0-41.94-18.7-41.94-41.95v-304.38h64.54v346.33h-22.6zm137.11 0v-346.33h64.55v304.38c0 23.25-18.7 41.95-41.95 41.95h-22.6zm-92.29-1.94h5.98v-311.59h-5.98v311.59zm14.15 0h17.36v-311.59h-17.36v311.59zm27.88 0h14.24v-311.59h-14.24v311.59zm22.39 0h6.01v-311.59h-6.01v311.59zm-103.11-19.7h7.71v-25.7h-9.79v25.5c0.68 0.1 1.37 0.2 2.08 0.2zm139.75 0h7.71c0.71 0 1.39-0.1 2.08-0.2v-25.5h-9.79v25.7zm-162.29-0.02h7.68v-25.68h-21.95v11.4c0 7.91 6.36 14.28 14.27 14.28zm184.86 0h7.68c7.91 0 14.27-6.37 14.27-14.28v-11.4h-21.95v25.68zm-184.86-35.91h7.68v-25.67h-21.95v11.4c0 7.91 6.36 14.27 14.27 14.27zm22.54 0h7.71v-25.7h-9.79v25.53c0.68 0.1 1.37 0.17 2.08 0.17zm139.75 0h7.71c0.71 0 1.39-0.07 2.08-0.17v-25.53h-9.79v25.7zm22.57 0h7.68c7.91 0 14.27-6.36 14.27-14.27v-11.4h-21.95v25.67zm-234.42-32.59c-16.92 0-30.54-13.62-30.54-30.54v-214.37h46.98v244.91h-16.44zm275.22 0v-244.91h46.98v214.37c0 16.92-13.62 30.54-30.54 30.54h-16.44zm-225.66-3.31h7.68v-25.68h-21.95v11.4c0 7.91 6.36 14.28 14.27 14.28zm22.54 0h7.71v-25.68h-9.79v25.47c0.68 0.1 1.37 0.21 2.08 0.21zm139.75 0h7.71c0.71 0 1.39-0.11 2.08-0.21v-25.47h-9.79v25.68zm22.57 0h7.68c7.91 0 14.27-6.37 14.27-14.28v-11.4h-21.95v25.68zm-234.83-2.32h12.48v-24.47h-35.73v1.23c0 12.87 10.38 23.24 23.25 23.24zm279.96 0h12.52c12.87 0 23.24-10.37 23.24-23.24v-1.23h-35.76v24.47zm-229.99-33.59h7.68v-25.7h-21.95v11.43c0 7.91 6.36 14.27 14.27 14.27zm22.54 0h7.71v-25.7h-9.79v25.53c0.68 0.1 1.37 0.17 2.08 0.17zm139.75 0h7.71c0.71 0 1.39-0.07 2.08-0.17v-25.53h-9.79v25.7zm22.57 0h7.68c7.91 0 14.27-6.36 14.27-14.27v-11.43h-21.95v25.7zm-248.43-4.95h5.21v-17.38h-14.86v7.74c0 5.34 4.3 9.64 9.65 9.64zm314.46 0h5.22c5.35 0 9.64-4.3 9.64-9.64v-7.74h-14.86v17.38zm-297.29-3.25c2.17 0 3.93-1.76 3.93-3.93s-1.76-3.96-3.93-3.96-3.95 1.79-3.95 3.96 1.78 3.93 3.95 3.93zm284.07 0c2.18 0 3.96-1.76 3.96-3.93s-1.78-3.96-3.96-3.96c-2.17 0-3.92 1.79-3.92 3.96s1.75 3.93 3.92 3.93zm-301.24-21.02h5.21v-17.38h-14.86v7.74c0 5.34 4.3 9.64 9.65 9.64zm314.46 0h5.22c5.35 0 9.64-4.3 9.64-9.64v-7.74h-14.86v17.38zm-297.29-3.37c2.17 0 3.93-1.76 3.93-3.93s-1.76-3.96-3.93-3.96-3.95 1.79-3.95 3.96 1.78 3.93 3.95 3.93zm284.07 0c2.18 0 3.96-1.76 3.96-3.93s-1.78-3.96-3.96-3.96c-2.17 0-3.92 1.79-3.92 3.96s1.75 3.93 3.92 3.93zm-237.67-3.31h7.68v-25.71h-21.95v11.43c0 7.91 6.36 14.28 14.27 14.28zm22.54 0h7.71v-25.71h-9.79v25.53c0.68 0.1 1.37 0.18 2.08 0.18zm139.75 0h7.71c0.71 0 1.39-0.08 2.08-0.18v-25.53h-9.79v25.71zm22.57 0h7.68c7.91 0 14.27-6.37 14.27-14.28v-11.43h-21.95v25.71zm-248.43-17.59h5.21v-17.38h-14.86v7.74c0 5.34 4.3 9.64 9.65 9.64zm314.46 0h5.22c5.35 0 9.64-4.3 9.64-9.64v-7.74h-14.86v17.38zm-297.29-3.49c2.17 0 3.93-1.75 3.93-3.92 0-2.18-1.76-3.96-3.93-3.96s-3.95 1.78-3.95 3.96c0 2.17 1.78 3.92 3.95 3.92zm284.07 0c2.18 0 3.96-1.75 3.96-3.92 0-2.18-1.78-3.96-3.96-3.96-2.17 0-3.92 1.78-3.92 3.96 0 2.17 1.75 3.92 3.92 3.92zm-237.67-14.83h7.68v-25.7h-21.95v11.43c0 7.91 6.36 14.27 14.27 14.27zm22.54 0h7.71v-25.7h-9.79v25.5c0.68 0.1 1.37 0.2 2.08 0.2zm139.75 0h7.71c0.71 0 1.39-0.1 2.08-0.2v-25.5h-9.79v25.7zm22.57 0h7.68c7.91 0 14.27-6.36 14.27-14.27v-11.43h-21.95v25.7zm-248.43-5.95h5.21v-17.38h-14.86v7.74c0 5.35 4.3 9.64 9.65 9.64zm314.46 0h5.22c5.35 0 9.64-4.29 9.64-9.64v-7.74h-14.86v17.38zm-297.29-3.6c2.17 0 3.93-1.76 3.93-3.93s-1.76-3.96-3.93-3.96-3.95 1.79-3.95 3.96 1.78 3.93 3.95 3.93zm284.07 0c2.18 0 3.96-1.76 3.96-3.93s-1.78-3.96-3.96-3.96c-2.17 0-3.92 1.79-3.92 3.96s1.75 3.93 3.92 3.93zm-393.48-5.72c-9.73 0-17.56-7.83-17.56-17.55v-9.47h81.19v27.02h-63.63zm440.53 0v-27.02h81.18v9.47c0 9.72-7.82 17.55-17.55 17.55h-63.63zm-348.29-14.95h5.21v-17.38h-14.86v7.71c0 5.35 4.3 9.67 9.65 9.67zm314.46 0h5.22c5.35 0 9.64-4.32 9.64-9.67v-7.71h-14.86v17.38zm-297.29-3.72c2.17 0 3.93-1.75 3.93-3.93 0-2.17-1.76-3.95-3.93-3.95s-3.95 1.78-3.95 3.95c0 2.18 1.78 3.93 3.95 3.93zm284.07 0c2.18 0 3.96-1.75 3.96-3.93 0-2.17-1.78-3.95-3.96-3.95-2.17 0-3.92 1.78-3.92 3.95 0 2.18 1.75 3.93 3.92 3.93zm-237.67-1.96h7.68v-25.71h-21.95v11.43c0 7.91 6.36 14.28 14.27 14.28zm184.86 0h7.68c7.91 0 14.27-6.37 14.27-14.28v-11.43h-21.95v25.71zm-162.32-0.03h7.71v-25.68h-9.79v25.5c0.68 0.1 1.37 0.18 2.08 0.18zm139.75 0h7.71c0.71 0 1.39-0.08 2.08-0.18v-25.5h-9.79v25.68zm-348.79-12.96c-9.73 0-17.555-7.82-17.555-17.55v-9.44h111.88v26.99h-94.32zm471.22 0v-26.99h111.87v9.44c0 9.73-7.83 17.55-17.56 17.55h-94.31zm-348.29-5.59h5.21v-17.39h-14.86v7.71c0 5.35 4.3 9.68 9.65 9.68zm314.46 0h5.22c5.35 0 9.64-4.33 9.64-9.68v-7.71h-14.86v17.39zm-297.29-3.84c2.17 0 3.93-1.76 3.93-3.93s-1.76-3.96-3.93-3.96-3.95 1.79-3.95 3.96 1.78 3.93 3.95 3.93zm284.07 0c2.18 0 3.96-1.76 3.96-3.93s-1.78-3.96-3.96-3.96c-2.17 0-3.92 1.79-3.92 3.96s1.75 3.93 3.92 3.93zm-237.67-13.49h7.68v-25.7h-21.95v11.4c0 7.91 6.36 14.3 14.27 14.3zm22.54 0h7.71v-25.7h-9.79v25.5c0.68 0.1 1.37 0.2 2.08 0.2zm139.75 0h7.71c0.71 0 1.39-0.1 2.08-0.2v-25.5h-9.79v25.7zm22.57 0h7.68c7.91 0 14.27-6.39 14.27-14.3v-11.4h-21.95v25.7zm-248.43-6.97h5.21v-17.35h-14.86v7.7c0 5.35 4.3 9.65 9.65 9.65zm314.46 0h5.22c5.35 0 9.64-4.3 9.64-9.65v-7.7h-14.86v17.35zm-464.15-3.7c-9.729 0-17.557-7.82-17.557-17.55v-9.44h138.64v26.99h-121.08zm497.98 0v-26.99h138.63v9.44c0 9.73-7.83 17.55-17.56 17.55h-121.07zm-331.12-0.23c2.17 0 3.93-1.76 3.93-3.93s-1.76-3.95-3.93-3.95-3.95 1.78-3.95 3.95 1.78 3.93 3.95 3.93zm284.07 0c2.18 0 3.96-1.76 3.96-3.93s-1.78-3.95-3.96-3.95c-2.17 0-3.92 1.78-3.92 3.95s1.75 3.93 3.92 3.93zm-5.54-36.81h1.79v-6.04h-5.16v2.7c0 1.86 1.51 3.34 3.37 3.34zm3.58 0h1.82c1.86 0 3.34-1.48 3.34-3.34v-2.7h-5.16v6.04zm-308.96-1.35h1.82v-6.04h-5.16v2.67c0 1.86 1.48 3.37 3.34 3.37zm3.61 0h1.79c1.86 0 3.37-1.51 3.37-3.37v-2.67h-5.16v6.04zm316.9-1.09c1.14 0 2.05-0.91 2.05-2.05s-0.91-2.08-2.05-2.08-2.08 0.94-2.08 2.08 0.94 2.05 2.08 2.05zm9.44 0c1.14 0 2.08-0.91 2.08-2.05s-0.94-2.08-2.08-2.08c-1.15 0-2.09 0.94-2.09 2.08s0.94 2.05 2.09 2.05zm9.43 0c1.15 0 2.08-0.91 2.08-2.05s-0.93-2.08-2.08-2.08c-1.14 0-2.05 0.94-2.05 2.08s0.91 2.05 2.05 2.05zm-324.25-1.34c1.14 0 2.08-0.91 2.08-2.06 0-1.14-0.94-2.08-2.08-2.08s-2.05 0.94-2.05 2.08c0 1.15 0.91 2.06 2.05 2.06zm9.47 0c1.14 0 2.05-0.91 2.05-2.06 0-1.14-0.91-2.08-2.05-2.08-1.15 0-2.09 0.94-2.09 2.08 0 1.15 0.94 2.06 2.09 2.06zm9.43 0c1.15 0 2.08-0.91 2.08-2.06 0-1.14-0.93-2.08-2.08-2.08-1.14 0-2.08 0.94-2.08 2.08 0 1.15 0.94 2.06 2.08 2.06zm267.98-3.05h5.16v-3.05h-5.16v3.05zm6.95 0h5.16v-3.05h-5.16v3.05zm-73.89-1.06c0.16 0.02 0.31 0 0.47 0h2.52v-8.38h-7.18v3.72c0 2.43 1.83 4.42 4.19 4.66zm5.45 0h2.52c2.59 0 4.66-2.07 4.66-4.66v-3.72h-7.18v8.38zm-243.86-0.29h5.16v-3.08h-5.16v3.08zm6.95 0h5.16v-3.08h-5.16v3.08zm53.81-0.67h2.52v-8.39h-7.18v3.73c0 2.58 2.08 4.66 4.66 4.66zm4.99 0h2.52c2.58 0 4.66-2.08 4.66-4.66v-3.73h-7.18v8.39zm192.56-1.32c1.55 0 2.81-1.27 2.81-2.82 0-1.54-1.26-2.78-2.81-2.78s-2.81 1.24-2.81 2.78c0 1.55 1.26 2.82 2.81 2.82zm12.81 0c1.55 0 2.78-1.27 2.78-2.82 0-1.54-1.23-2.78-2.78-2.78s-2.81 1.24-2.81 2.78c0 1.55 1.26 2.82 2.81 2.82zm12.78 0c1.55 0 2.81-1.27 2.81-2.82 0-1.54-1.26-2.78-2.81-2.78s-2.79 1.24-2.79 2.78c0 1.55 1.24 2.82 2.79 2.82zm-203.7-0.97c1.54 0 2.78-1.27 2.78-2.81 0-1.55-1.24-2.82-2.78-2.82-1.55 0-2.82 1.27-2.82 2.82 0 1.54 1.27 2.81 2.82 2.81zm12.8 0c1.55 0 2.79-1.27 2.79-2.81 0-1.55-1.24-2.82-2.79-2.82-1.54 0-2.81 1.27-2.81 2.82 0 1.54 1.27 2.81 2.81 2.81zm12.78 0c1.55 0 2.82-1.27 2.82-2.81 0-1.55-1.27-2.82-2.82-2.82-1.54 0-2.78 1.27-2.78 2.82 0 1.54 1.24 2.81 2.78 2.81zm128.44-6.24h7.18v-4.22h-7.18v4.22zm9.64 0h7.18v-4.22h-7.18v4.22zm-187.76-0.97h7.18v-4.25h-7.18v4.25zm9.65 0h7.18v-4.25h-7.18v4.25zm74.85-7.36h3.37v-11.25h-9.64v5.01c0 3.47 2.8 6.24 6.27 6.24zm6.69 0h3.37c3.47 0 6.27-2.77 6.27-6.24v-5.01h-9.64v11.25zm21.51-3.72c2.17 0 3.96-1.78 3.96-3.96 0-2.17-1.79-3.92-3.96-3.92s-3.93 1.75-3.93 3.92c0 2.18 1.76 3.96 3.93 3.96zm17.97 0c2.17 0 3.95-1.78 3.95-3.96 0-2.17-1.78-3.92-3.95-3.92-2.18 0-3.93 1.75-3.93 3.92 0 2.18 1.75 3.96 3.93 3.96zm17.99 0c2.17 0 3.93-1.78 3.93-3.96 0-2.17-1.76-3.92-3.93-3.92s-3.95 1.75-3.95 3.92c0 2.18 1.78 3.96 3.95 3.96zm-70.43-9.03h9.64v-5.68h-9.64v5.68zm12.96 0h9.64v-5.68h-9.64v5.68z"/>
    <rect id="rect9217" transform="matrix(1.6292 0 0 1.6292 32.946 -321.33)" rx="21.897" ry="21.897" height="46.532" filter="url(#filter9193)" width="314.78" y="462.5" x="-4.1058" fill="url(#linearGradient9368)"/>
    <path id="path9007" stroke-linejoin="round" d="m348.22 55.72c-0.01 0.465-0.03 0.91-0.03 1.377v405.35h91.19v-406.73h-91.16zm33.59 6.448h23.95c12.87 0 23.24 10.372 23.24 23.243v1.26h-70.43v-1.26c0-12.871 10.37-23.243 23.24-23.243zm-23.36 0.029c2.17 0 3.93 1.756 3.93 3.928s-1.76 3.927-3.93 3.927-3.96-1.755-3.96-3.927 1.79-3.928 3.96-3.928zm70.43 0c2.17 0 3.96 1.756 3.96 3.928s-1.79 3.927-3.96 3.927-3.92-1.755-3.92-3.927 1.75-3.928 3.92-3.928zm-115.13 32.446c-23.24 0-41.94 18.697-41.94 41.947v304.38h64.54v-346.33l-22.6 0.003zm137.11 0v346.33h64.55v-304.38c0-23.25-18.7-41.947-41.95-41.947h-22.6zm-92.29 1.935h5.98v311.59h-5.98v-311.59zm14.15 0h17.36v311.59h-17.36v-311.59zm27.88 0h14.24v311.59h-14.24v-311.59zm22.39 0h6.01v311.59h-6.01v-311.59zm-103.11 19.692h7.71v25.71h-9.79v-25.5c0.68-0.1 1.37-0.21 2.08-0.21zm139.75 0h7.71c0.71 0 1.39 0.11 2.08 0.21v25.5h-9.79v-25.71zm-162.29 0.03h7.68v25.68h-21.95v-11.4c0-7.91 6.36-14.28 14.27-14.28zm184.86 0h7.68c7.91 0 14.27 6.37 14.27 14.28v11.4h-21.95v-25.68zm-184.86 35.91h7.68v25.67h-21.95v-11.4c0-7.91 6.36-14.27 14.27-14.27zm22.54 0h7.71v25.7h-9.79v-25.53c0.68-0.1 1.37-0.17 2.08-0.17zm139.75 0h7.71c0.71 0 1.39 0.07 2.08 0.17v25.53h-9.79v-25.7zm22.57 0h7.68c7.91 0 14.27 6.36 14.27 14.27v11.4h-21.95v-25.67zm-234.42 32.59c-16.92 0-30.54 13.62-30.54 30.54v214.37h46.98v-244.91h-16.44zm275.22 0v244.91h46.98v-214.37c0-16.92-13.62-30.54-30.54-30.54h-16.44zm-225.66 3.31h7.68v25.68h-21.95v-11.4c0-7.91 6.36-14.28 14.27-14.28zm22.54 0h7.71v25.68h-9.79v-25.47c0.68-0.1 1.37-0.21 2.08-0.21zm139.75 0h7.71c0.71 0 1.39 0.11 2.08 0.21v25.47h-9.79v-25.68zm22.57 0h7.68c7.91 0 14.27 6.37 14.27 14.28v11.4h-21.95v-25.68zm-234.83 2.32h12.48v24.47h-35.73v-1.23c0-12.87 10.38-23.24 23.25-23.24zm279.96 0h12.52c12.87 0 23.24 10.37 23.24 23.24v1.23h-35.76v-24.47zm-229.99 33.59h7.68v25.7h-21.95v-11.43c0-7.91 6.36-14.27 14.27-14.27zm22.54 0h7.71v25.7h-9.79v-25.53c0.68-0.1 1.37-0.17 2.08-0.17zm139.75 0h7.71c0.71 0 1.39 0.07 2.08 0.17v25.53h-9.79v-25.7zm22.57 0h7.68c7.91 0 14.27 6.36 14.27 14.27v11.43h-21.95v-25.7zm-248.43 4.95h5.21v17.38h-14.86v-7.74c0-5.34 4.3-9.64 9.65-9.64zm314.46 0h5.22c5.35 0 9.64 4.3 9.64 9.64v7.74h-14.86v-17.38zm-297.29 3.25c2.17 0 3.93 1.76 3.93 3.93s-1.76 3.96-3.93 3.96-3.95-1.79-3.95-3.96 1.78-3.93 3.95-3.93zm284.07 0c2.18 0 3.96 1.76 3.96 3.93s-1.78 3.96-3.96 3.96c-2.17 0-3.92-1.79-3.92-3.96s1.75-3.93 3.92-3.93zm-301.24 21.02h5.21v17.38h-14.86v-7.74c0-5.34 4.3-9.64 9.65-9.64zm314.46 0h5.22c5.35 0 9.64 4.3 9.64 9.64v7.74h-14.86v-17.38zm-297.29 3.37c2.17 0 3.93 1.76 3.93 3.93s-1.76 3.95-3.93 3.95-3.95-1.78-3.95-3.95 1.78-3.93 3.95-3.93zm284.07 0c2.18 0 3.96 1.76 3.96 3.93s-1.78 3.95-3.96 3.95c-2.17 0-3.92-1.78-3.92-3.95s1.75-3.93 3.92-3.93zm-237.67 3.31h7.68v25.71h-21.95v-11.43c0-7.91 6.36-14.28 14.27-14.28zm22.54 0h7.71v25.71h-9.79v-25.53c0.68-0.1 1.37-0.18 2.08-0.18zm139.75 0h7.71c0.71 0 1.39 0.08 2.08 0.18v25.53h-9.79v-25.71zm22.57 0h7.68c7.91 0 14.27 6.37 14.27 14.28v11.43h-21.95v-25.71zm-248.43 17.59h5.21v17.38h-14.86v-7.74c0-5.35 4.3-9.64 9.65-9.64zm314.46 0h5.22c5.35 0 9.64 4.29 9.64 9.64v7.74h-14.86v-17.38zm-297.29 3.49c2.17 0 3.93 1.75 3.93 3.92s-1.76 3.96-3.93 3.96-3.95-1.79-3.95-3.96 1.78-3.92 3.95-3.92zm284.07 0c2.18 0 3.96 1.75 3.96 3.92s-1.78 3.96-3.96 3.96c-2.17 0-3.92-1.79-3.92-3.96s1.75-3.92 3.92-3.92zm-237.67 14.83h7.68v25.7h-21.95v-11.43c0-7.91 6.36-14.27 14.27-14.27zm22.54 0h7.71v25.7h-9.79v-25.5c0.68-0.1 1.37-0.2 2.08-0.2zm139.75 0h7.71c0.71 0 1.39 0.1 2.08 0.2v25.5h-9.79v-25.7zm22.57 0h7.68c7.91 0 14.27 6.36 14.27 14.27v11.43h-21.95v-25.7zm-248.43 5.95h5.21v17.38h-14.86v-7.74c0-5.35 4.3-9.64 9.65-9.64zm314.46 0h5.22c5.35 0 9.64 4.29 9.64 9.64v7.74h-14.86v-17.38zm-297.29 3.6c2.17 0 3.93 1.76 3.93 3.93s-1.76 3.96-3.93 3.96-3.95-1.79-3.95-3.96 1.78-3.93 3.95-3.93zm284.07 0c2.18 0 3.96 1.76 3.96 3.93s-1.78 3.96-3.96 3.96c-2.17 0-3.92-1.79-3.92-3.96s1.75-3.93 3.92-3.93zm-393.48 5.72c-9.73 0-17.56 7.82-17.56 17.55v9.47h81.19v-27.02h-63.63zm440.53 0v27.02h81.18v-9.47c0-9.73-7.82-17.55-17.55-17.55h-63.63zm-348.29 14.94h5.21v17.39h-14.86v-7.71c0-5.35 4.3-9.68 9.65-9.68zm314.46 0h5.22c5.35 0 9.64 4.33 9.64 9.68v7.71h-14.86v-17.39zm-297.29 3.73c2.17 0 3.93 1.75 3.93 3.92 0 2.18-1.76 3.96-3.93 3.96s-3.95-1.78-3.95-3.96c0-2.17 1.78-3.92 3.95-3.92zm284.07 0c2.18 0 3.96 1.75 3.96 3.92 0 2.18-1.78 3.96-3.96 3.96-2.17 0-3.92-1.78-3.92-3.96 0-2.17 1.75-3.92 3.92-3.92zm-237.67 1.96h7.68v25.71h-21.95v-11.44c0-7.9 6.36-14.27 14.27-14.27zm184.86 0h7.68c7.91 0 14.27 6.37 14.27 14.27v11.44h-21.95v-25.71zm-162.32 0.03h7.71v25.68h-9.79v-25.5c0.68-0.1 1.37-0.18 2.08-0.18zm139.75 0h7.71c0.71 0 1.39 0.08 2.08 0.18v25.5h-9.79v-25.68zm-348.79 12.95c-9.73 0-17.555 7.83-17.555 17.56v9.44h111.88v-27h-94.32zm471.22 0v27h111.87v-9.44c0-9.73-7.83-17.56-17.56-17.56h-94.31zm-348.29 5.6h5.21v17.38h-14.86v-7.7c0-5.35 4.3-9.68 9.65-9.68zm314.46 0h5.22c5.35 0 9.64 4.33 9.64 9.68v7.7h-14.86v-17.38zm-297.29 3.84c2.17 0 3.93 1.76 3.93 3.93s-1.76 3.96-3.93 3.96-3.95-1.79-3.95-3.96 1.78-3.93 3.95-3.93zm284.07 0c2.18 0 3.96 1.76 3.96 3.93s-1.78 3.96-3.96 3.96c-2.17 0-3.92-1.79-3.92-3.96s1.75-3.93 3.92-3.93zm-237.67 13.49h7.68v25.7h-21.95v-11.4c0-7.91 6.36-14.3 14.27-14.3zm22.54 0h7.71v25.7h-9.79v-25.5c0.68-0.1 1.37-0.2 2.08-0.2zm139.75 0h7.71c0.71 0 1.39 0.1 2.08 0.2v25.5h-9.79v-25.7zm22.57 0h7.68c7.91-0.01 14.27 6.39 14.27 14.3v11.4h-21.95v-25.7zm-248.43 6.97h5.21v17.35h-14.86v-7.71c0-5.34 4.3-9.64 9.65-9.64zm314.46 0h5.22c5.35 0 9.64 4.3 9.64 9.64v7.71h-14.86v-17.35zm-464.15 3.69c-9.729 0-17.557 7.83-17.557 17.56v9.44h138.64v-27h-121.08zm497.98 0v27h138.63v-9.44c0-9.73-7.83-17.56-17.56-17.56h-121.07zm-331.12 0.24c2.17 0 3.93 1.75 3.93 3.93 0 2.17-1.76 3.95-3.93 3.95s-3.95-1.78-3.95-3.95c0-2.18 1.78-3.93 3.95-3.93zm284.07 0c2.18 0 3.96 1.75 3.96 3.93 0 2.17-1.78 3.95-3.96 3.95-2.17 0-3.92-1.78-3.92-3.95 0-2.18 1.75-3.93 3.92-3.93zm-5.54 36.81h1.79v6.04h-5.16v-2.7c0-1.86 1.51-3.34 3.37-3.34zm3.58 0h1.82c1.86 0 3.34 1.48 3.34 3.34v2.7h-5.16v-6.04zm-308.96 1.35h1.82v6.04h-5.16v-2.67c0-1.86 1.48-3.37 3.34-3.37zm3.61 0h1.79c1.86 0 3.37 1.51 3.37 3.37v2.67h-5.16v-6.04zm316.9 1.08c1.14 0 2.05 0.91 2.05 2.06 0 1.14-0.91 2.08-2.05 2.08s-2.08-0.94-2.08-2.08c0-1.15 0.94-2.06 2.08-2.06zm9.44 0c1.14 0 2.08 0.91 2.08 2.06 0 1.14-0.94 2.08-2.08 2.08-1.15 0-2.09-0.94-2.09-2.08 0-1.15 0.94-2.06 2.09-2.06zm9.43 0c1.15 0 2.08 0.91 2.08 2.06 0 1.14-0.93 2.08-2.08 2.08-1.14 0-2.05-0.94-2.05-2.08 0-1.15 0.91-2.06 2.05-2.06zm-324.25 1.35c1.14 0 2.08 0.91 2.08 2.05 0 1.15-0.94 2.09-2.08 2.09s-2.05-0.94-2.05-2.09c0-1.14 0.91-2.05 2.05-2.05zm9.47 0c1.14 0 2.05 0.91 2.05 2.05 0 1.15-0.91 2.09-2.05 2.09-1.15 0-2.09-0.94-2.09-2.09 0-1.14 0.94-2.05 2.09-2.05zm9.43 0c1.15 0 2.08 0.91 2.08 2.05 0 1.15-0.93 2.09-2.08 2.09-1.14 0-2.08-0.94-2.08-2.09 0-1.14 0.94-2.05 2.08-2.05zm267.98 3.05h5.16v3.05h-5.16v-3.05zm6.95 0h5.16v3.05h-5.16v-3.05zm-73.89 1.06c0.16-0.02 0.31 0 0.47 0h2.52v8.38h-7.18v-3.72c0-2.43 1.83-4.43 4.19-4.66zm5.45 0h2.52c2.59 0 4.66 2.07 4.66 4.66v3.72h-7.18v-8.38zm-243.86 0.29h5.16v3.08h-5.16v-3.08zm6.95 0h5.16v3.08h-5.16v-3.08zm53.81 0.67h2.52v8.39h-7.18v-3.73c0-2.58 2.08-4.66 4.66-4.66zm4.99 0h2.52c2.58 0 4.66 2.08 4.66 4.66v3.73h-7.18v-8.39zm192.56 1.32c1.55 0 2.81 1.27 2.81 2.82 0 1.54-1.26 2.78-2.81 2.78s-2.81-1.24-2.81-2.78c0-1.55 1.26-2.82 2.81-2.82zm12.81 0c1.55 0 2.78 1.27 2.78 2.82 0 1.54-1.23 2.78-2.78 2.78s-2.81-1.24-2.81-2.78c0-1.55 1.26-2.82 2.81-2.82zm12.78 0c1.55 0 2.81 1.27 2.81 2.82 0 1.54-1.26 2.78-2.81 2.78s-2.79-1.24-2.79-2.78c0-1.55 1.24-2.82 2.79-2.82zm-203.7 0.97c1.54 0 2.78 1.27 2.78 2.81 0 1.55-1.24 2.82-2.78 2.82-1.55 0-2.82-1.27-2.82-2.82 0-1.54 1.27-2.81 2.82-2.81zm12.8 0c1.55 0 2.79 1.27 2.79 2.81 0 1.55-1.24 2.82-2.79 2.82-1.54 0-2.81-1.27-2.81-2.82 0-1.54 1.27-2.81 2.81-2.81zm12.78 0c1.55 0 2.82 1.27 2.82 2.81 0 1.55-1.27 2.82-2.82 2.82-1.54 0-2.78-1.27-2.78-2.82 0-1.54 1.24-2.81 2.78-2.81zm128.44 6.24h7.18v4.22h-7.18v-4.22zm9.64 0h7.18v4.22h-7.18v-4.22zm-187.76 0.97h7.18v4.25h-7.18v-4.25zm9.65 0h7.18v4.25h-7.18v-4.25zm74.85 7.36h3.37v11.25h-9.64v-5.01c0-3.47 2.8-6.24 6.27-6.24zm6.69 0h3.37c3.47 0 6.27 2.77 6.27 6.24v5.01h-9.64v-11.25zm21.51 3.72c2.17 0 3.96 1.78 3.96 3.96 0 2.17-1.79 3.92-3.96 3.92s-3.93-1.75-3.93-3.92c0-2.18 1.76-3.96 3.93-3.96zm17.97 0c2.17 0 3.95 1.78 3.95 3.96 0 2.17-1.78 3.92-3.95 3.92-2.18 0-3.93-1.75-3.93-3.92 0-2.18 1.75-3.96 3.93-3.96zm17.99 0c2.17 0 3.93 1.78 3.93 3.96 0 2.17-1.76 3.92-3.93 3.92s-3.95-1.75-3.95-3.92c0-2.18 1.78-3.96 3.95-3.96zm-70.43 9.03h9.64v5.68h-9.64v-5.68zm12.96 0h9.64v5.68h-9.64v-5.68z" stroke="#fff" stroke-linecap="round" stroke-width="4.6896" fill="none"/>
    <path id="path3168" d="m205.13 309.45v27.01h-81.19v-9.46c0-9.72 7.82-17.55 17.55-17.55h63.64z"/>
    <path id="path3170" d="m205.13 343.04v27.02h-111.88l0.005-9.46c0-9.73 7.825-17.56 17.555-17.56h94.32z"/>
    <path id="path3172" d="m205.13 376.64v27.01h-138.65l-0.003-9.46c0-9.73 7.827-17.55 17.555-17.55h121.1z"/>
    <path id="path3176" d="m217.21 428.04h46.99v-244.9h-16.45c-16.93 0-30.54 13.62-30.54 30.54v214.36z"/>
    <path id="path3178" d="m271.78 439.3h64.55v-346.31h-22.6c-23.25 0-41.95 18.7-41.95 41.95v304.36z"/>
    <path id="path3204" d="m297.31 114.63c-7.91 0-14.28 6.37-14.28 14.28v11.42h21.96v-25.7h-7.68z" fill="#fff"/>
    <path id="path3209" d="m297.31 150.54c-7.91 0-14.28 6.37-14.28 14.28v11.42h21.96v-25.7h-7.68z" fill="#fff"/>
    <path id="path3211" d="m297.31 186.45c-7.91 0-14.28 6.37-14.28 14.28v11.41h21.96v-25.69h-7.68z" fill="#fff"/>
    <path id="path3213" d="m297.31 222.36c-7.91 0-14.28 6.36-14.28 14.27v11.42h21.96v-25.69h-7.68z" fill="#fff"/>
    <path id="path3215" d="m297.31 258.27c-7.91 0-14.28 6.36-14.28 14.27v11.42h21.96v-25.69h-7.68z" fill="#fff"/>
    <path id="path3217" d="m297.31 294.18c-7.91 0-14.28 6.36-14.28 14.27v11.42h21.96v-25.69h-7.68z" fill="#fff"/>
    <path id="path3219" d="m297.31 330.08c-7.91 0-14.28 6.37-14.28 14.28v11.42h21.96v-25.7h-7.68z" fill="#fff"/>
    <path id="path3221" d="m297.31 365.99c-7.91 0-14.28 6.37-14.28 14.28v11.42h21.96v-25.7h-7.68z" fill="#fff"/>
    <path id="path3223" fill="#fff" d="m247.32 188.78c-12.87 0-23.23 10.35-23.23 23.22v1.25h35.74v-24.47h-12.51z"/>
    <path id="path3225" d="m233.74 227.31c-5.34 0-9.65 4.31-9.65 9.65v7.72h14.85v-17.37h-5.2z" fill="#fff"/>
    <path id="path3227" d="m233.74 251.58c-5.34 0-9.65 4.31-9.65 9.65v7.72h14.85v-17.37h-5.2z" fill="#fff"/>
    <path id="path3229" d="m233.74 275.86c-5.34 0-9.65 4.3-9.65 9.64v7.72h14.85v-17.36h-5.2z" fill="#fff"/>
    <path id="path3231" d="m233.74 300.13c-5.34 0-9.65 4.3-9.65 9.65v7.71h14.85v-17.36h-5.2z" fill="#fff"/>
    <path id="path3233" d="m233.74 324.4c-5.34 0-9.65 4.3-9.65 9.65v7.71h14.85v-17.36h-5.2z" fill="#fff"/>
    <path id="path3235" d="m233.74 348.67c-5.34 0-9.65 4.3-9.65 9.65v7.72h14.85v-17.37h-5.2z" fill="#fff"/>
    <path id="path3237" d="m233.74 372.94c-5.34 0-9.65 4.3-9.65 9.65v7.72h14.85v-17.37h-5.2z" fill="#fff"/>
    <path id="path3239" d="m319.85 114.63c-0.72 0-1.4 0.08-2.09 0.18v25.52h9.78v-25.7h-7.69zm0 35.91c-0.72 0-1.4 0.09-2.09 0.19v25.52h9.78v-25.71h-7.69zm0 35.92c-0.72 0-1.4 0.09-2.09 0.19v25.48h9.78v-25.67h-7.69zm0 35.89c-0.72 0-1.4 0.08-2.09 0.19v25.51h9.78v-25.7h-7.69zm0 35.91c-0.72 0-1.4 0.09-2.09 0.19v25.52h9.78v-25.71h-7.69zm0 35.92c-0.72 0-1.4 0.09-2.09 0.19v25.51h9.78v-25.7h-7.69zm0 35.91c-0.72 0-1.4 0.09-2.09 0.19v25.49h9.78v-25.68h-7.69zm0 35.89c-0.72 0-1.4 0.09-2.09 0.19v25.52h9.78v-25.71h-7.69z" fill="#fff"/>
    <path id="path3259" d="m348.18 54.062c-0.01 0.465-0.03 0.922-0.03 1.389v405.34h91.2v-406.73l-91.17 0.002z"/>
    <path id="path3352" d="m143.53 168.74c-33.17 0-59.899 26.82-59.899 60.1v29.22h23.459v-28.17c0-5.5 1.24-10.72 3.49-15.47s5.51-9.02 9.54-12.6 8.83-6.47 14.18-8.47c5.34-2 11.22-3.1 17.4-3.1h44.02v-21.51h-52.19z" stroke-opacity="0" fill-opacity="0" clip-path="url(#clipPath8518)" transform="matrix(.47290 0 0 .47290 176.78 101.34)" marker-mid="url(#marker3354)" stroke-miterlimit="0"/>
    <g id="g8531" transform="matrix(.86675 0 0 .86675 -5.0948 11.525)">
      <path id="path8522" fill="#fff" d="m446.34 56.531c-14.85 0-26.81 11.964-26.81 26.813v1.437h81.25v-1.437c0-14.849-11.96-26.813-26.81-26.813h-27.63z"/>
      <path id="path8524" d="m143.53 168.74c-33.17 0-59.899 26.82-59.899 60.1v29.22h23.459v-28.17c0-5.5 1.24-10.72 3.49-15.47s5.51-9.02 9.54-12.6 8.83-6.47 14.18-8.47c5.34-2 11.22-3.1 17.4-3.1h44.02v-21.51h-52.19z" stroke-opacity="0" fill-opacity="0" clip-path="url(#clipPath8518)" transform="matrix(.54560 0 0 .54560 364.96 -44.349)" marker-mid="url(#marker3354)" stroke-miterlimit="0"/>
      <path id="path8528" d="m143.53 168.74c-33.17 0-59.899 26.82-59.899 60.1v29.22h23.459v-28.17c0-5.5 1.24-10.72 3.49-15.47s5.51-9.02 9.54-12.6 8.83-6.47 14.18-8.47c5.34-2 11.22-3.1 17.4-3.1h44.02v-21.51h-52.19z" stroke-opacity="0" fill-opacity="0" clip-path="url(#clipPath8518)" transform="matrix(-.54560 0 0 .54560 555.36 -44.349)" marker-mid="url(#marker3354)" stroke-miterlimit="0"/>
    </g>
    <path id="path8538" d="m417.1 35.992a4.1129 4.1129 0 1 1 -8.23 0 4.1129 4.1129 0 1 1 8.23 0z" stroke-opacity="0" transform="matrix(.95669 0 0 .95669 33.76 30.041)" stroke-miterlimit="0" fill="#fff"/>
    <path id="path8540" d="m417.1 35.992a4.1129 4.1129 0 1 1 -8.23 0 4.1129 4.1129 0 1 1 8.23 0z" stroke-opacity="0" transform="matrix(.95669 0 0 .95669 -36.698 30.041)" stroke-miterlimit="0" fill="#fff"/>
    <path id="path8544" d="m358.53 94.921v311.6h70.42v-311.6l-34.7 0.001h-35.72z" fill="#fff"/>
    <g id="g8562" transform="matrix(.86675 0 0 .95939 -2.216 25.76)">
      <path id="path8556" d="m423.12 63.039v360.25h9.41v-360.25l-9.41-0.001z"/>
      <path id="path8558" d="m481.12 63.039v360.25h9.41v-360.25l-9.41-0.001z"/>
    </g>
    <path id="path8560" d="m390.03 86.239v345.63h10.53v-345.63l-10.53-0.001z"/>
    <path id="path8566" d="m582.02 309.45v27.01h81.18v-9.46c0-9.72-7.82-17.55-17.55-17.55h-63.63z"/>
    <path id="path8568" d="m582.02 343.04v27.02h111.87v-9.46c0-9.73-7.83-17.56-17.56-17.56h-94.31z"/>
    <path id="path8570" d="m582.02 376.64v27.01h138.64v-9.46c0-9.73-7.82-17.55-17.55-17.55h-121.09z"/>
    <path id="path8572" d="m569.93 428.04h-46.98v-244.9h16.45c16.92 0 30.53 13.62 30.53 30.54v214.36z"/>
    <path id="path8574" d="m515.36 439.3h-64.55v-346.31h22.6c23.25 0 41.95 18.7 41.95 41.95v304.36z"/>
    <path id="path8576" d="m489.83 114.63c7.91 0 14.28 6.37 14.28 14.28v11.42h-21.96v-25.7h7.68z" fill="#fff"/>
    <path id="path8578" d="m489.83 150.54c7.91 0 14.28 6.37 14.28 14.28v11.42h-21.96v-25.7h7.68z" fill="#fff"/>
    <path id="path8580" d="m489.83 186.45c7.91 0 14.28 6.37 14.28 14.28v11.41h-21.96v-25.69h7.68z" fill="#fff"/>
    <path id="path8582" d="m489.83 222.36c7.91 0 14.28 6.36 14.28 14.27v11.42h-21.96v-25.69h7.68z" fill="#fff"/>
    <path id="path8584" d="m489.83 258.27c7.91 0 14.28 6.36 14.28 14.27v11.42h-21.96v-25.69h7.68z" fill="#fff"/>
    <path id="path8586" d="m489.83 294.18c7.91 0 14.28 6.36 14.28 14.27v11.42h-21.96v-25.69h7.68z" fill="#fff"/>
    <path id="path8588" d="m489.83 330.08c7.91 0 14.28 6.37 14.28 14.28v11.42h-21.96v-25.7h7.68z" fill="#fff"/>
    <path id="path8590" d="m489.83 365.99c7.91 0 14.28 6.37 14.28 14.28v11.42h-21.96v-25.7h7.68z" fill="#fff"/>
    <path id="path8592" fill="#fff" d="m539.82 188.78c12.87 0 23.23 10.35 23.23 23.22v1.25h-35.74v-24.47h12.51z"/>
    <path id="path8594" d="m553.4 227.31c5.34 0 9.65 4.31 9.65 9.65v7.72h-14.85v-17.37h5.2z" fill="#fff"/>
    <path id="path8596" d="m553.4 251.58c5.34 0 9.65 4.31 9.65 9.65v7.72h-14.85v-17.37h5.2z" fill="#fff"/>
    <path id="path8598" d="m553.4 275.86c5.34 0 9.65 4.3 9.65 9.64v7.72h-14.85v-17.36h5.2z" fill="#fff"/>
    <path id="path8600" d="m553.4 300.13c5.34 0 9.65 4.3 9.65 9.65v7.71h-14.85v-17.36h5.2z" fill="#fff"/>
    <path id="path8602" d="m553.4 324.4c5.34 0 9.65 4.3 9.65 9.65v7.71h-14.85v-17.36h5.2z" fill="#fff"/>
    <path id="path8604" d="m553.4 348.67c5.34 0 9.65 4.3 9.65 9.65v7.72h-14.85v-17.37h5.2z" fill="#fff"/>
    <path id="path8606" d="m553.4 372.94c5.34 0 9.65 4.3 9.65 9.65v7.72h-14.85v-17.37h5.2z" fill="#fff"/>
    <path id="path8608" d="m467.29 114.63c0.72 0 1.41 0.08 2.09 0.18v25.52h-9.78v-25.7h7.69zm0 35.91c0.72 0 1.41 0.09 2.09 0.19v25.52h-9.78v-25.71h7.69zm0 35.92c0.72 0 1.41 0.09 2.09 0.19v25.48h-9.78v-25.67h7.69zm0 35.89c0.72 0 1.41 0.08 2.09 0.19v25.51h-9.78v-25.7h7.69zm0 35.91c0.72 0 1.41 0.09 2.09 0.19v25.52h-9.78v-25.71h7.69zm0 35.92c0.72 0 1.41 0.09 2.09 0.19v25.51h-9.78v-25.7h7.69zm0 35.91c0.72 0 1.41 0.09 2.09 0.19v25.49h-9.78v-25.68h7.69zm0 35.89c0.72 0 1.41 0.09 2.09 0.19v25.52h-9.78v-25.71h7.69z" fill="#fff"/>
    <path id="path8610" d="m143.53 168.74c-33.17 0-59.899 26.82-59.899 60.1v29.22h23.459v-28.17c0-5.5 1.24-10.72 3.49-15.47s5.51-9.02 9.54-12.6 8.83-6.47 14.18-8.47c5.34-2 11.22-3.1 17.4-3.1h44.02v-21.51h-52.19z" stroke-opacity="0" fill-opacity="0" clip-path="url(#clipPath8518)" transform="matrix(-.47290 0 0 .47290 610.36 101.34)" marker-mid="url(#marker3354)" stroke-miterlimit="0"/>
    <path id="path8671" d="m417.1 35.992a4.1129 4.1129 0 1 1 -8.23 0 4.1129 4.1129 0 1 1 8.23 0z" stroke-opacity="0" transform="matrix(.95669 0 0 .95669 -144.21 200.08)" stroke-miterlimit="0" fill="#fff"/>
    <path id="path8673" d="m417.1 35.992a4.1129 4.1129 0 1 1 -8.23 0 4.1129 4.1129 0 1 1 8.23 0z" stroke-opacity="0" transform="matrix(.95669 0 0 .95669 -144.21 224.46)" stroke-miterlimit="0" fill="#fff"/>
    <path id="path8675" d="m417.1 35.992a4.1129 4.1129 0 1 1 -8.23 0 4.1129 4.1129 0 1 1 8.23 0z" stroke-opacity="0" transform="matrix(.95669 0 0 .95669 -144.21 248.85)" stroke-miterlimit="0" fill="#fff"/>
    <path id="path8677" d="m417.1 35.992a4.1129 4.1129 0 1 1 -8.23 0 4.1129 4.1129 0 1 1 8.23 0z" stroke-opacity="0" transform="matrix(.95669 0 0 .95669 -144.21 273.23)" stroke-miterlimit="0" fill="#fff"/>
    <path id="path8679" d="m417.1 35.992a4.1129 4.1129 0 1 1 -8.23 0 4.1129 4.1129 0 1 1 8.23 0z" stroke-opacity="0" transform="matrix(.95669 0 0 .95669 -144.21 297.62)" stroke-miterlimit="0" fill="#fff"/>
    <path id="path8681" d="m417.1 35.992a4.1129 4.1129 0 1 1 -8.23 0 4.1129 4.1129 0 1 1 8.23 0z" stroke-opacity="0" transform="matrix(.95669 0 0 .95669 -144.21 322)" stroke-miterlimit="0" fill="#fff"/>
    <path id="path8685" d="m417.1 35.992a4.1129 4.1129 0 1 1 -8.23 0 4.1129 4.1129 0 1 1 8.23 0z" stroke-opacity="0" transform="matrix(.95669 0 0 .95669 -144.21 346.39)" stroke-miterlimit="0" fill="#fff"/>
    <path id="path8687" d="m417.1 35.992a4.1129 4.1129 0 1 1 -8.23 0 4.1129 4.1129 0 1 1 8.23 0z" stroke-opacity="0" transform="matrix(.95669 0 0 .95669 139.89 200.08)" stroke-miterlimit="0" fill="#fff"/>
    <path id="path8689" d="m417.1 35.992a4.1129 4.1129 0 1 1 -8.23 0 4.1129 4.1129 0 1 1 8.23 0z" stroke-opacity="0" transform="matrix(.95669 0 0 .95669 139.89 224.46)" stroke-miterlimit="0" fill="#fff"/>
    <path id="path8691" d="m417.1 35.992a4.1129 4.1129 0 1 1 -8.23 0 4.1129 4.1129 0 1 1 8.23 0z" stroke-opacity="0" transform="matrix(.95669 0 0 .95669 139.89 248.85)" stroke-miterlimit="0" fill="#fff"/>
    <path id="path8693" d="m417.1 35.992a4.1129 4.1129 0 1 1 -8.23 0 4.1129 4.1129 0 1 1 8.23 0z" stroke-opacity="0" transform="matrix(.95669 0 0 .95669 139.89 273.23)" stroke-miterlimit="0" fill="#fff"/>
    <path id="path8695" d="m417.1 35.992a4.1129 4.1129 0 1 1 -8.23 0 4.1129 4.1129 0 1 1 8.23 0z" stroke-opacity="0" transform="matrix(.95669 0 0 .95669 139.89 297.62)" stroke-miterlimit="0" fill="#fff"/>
    <path id="path8697" d="m417.1 35.992a4.1129 4.1129 0 1 1 -8.23 0 4.1129 4.1129 0 1 1 8.23 0z" stroke-opacity="0" transform="matrix(.95669 0 0 .95669 139.89 322)" stroke-miterlimit="0" fill="#fff"/>
    <path id="path8699" d="m417.1 35.992a4.1129 4.1129 0 1 1 -8.23 0 4.1129 4.1129 0 1 1 8.23 0z" stroke-opacity="0" transform="matrix(.95669 0 0 .95669 139.89 346.39)" stroke-miterlimit="0" fill="#fff"/>
    <path id="path9105" d="m349.3 157.65v304.35h89.17v-405.57c-29.72-0.002-59.44-0.002-89.16-0.002 0 33.739 0 67.482-0.01 101.22zm50.79-97.032c5.41 0.025 11.12-0.293 16.06 2.253 8.46 3.871 14.34 12.811 14.18 22.197 0.2 1.631 0.04 2.989-1.98 2.394h-70.86c-1-10.33 5.07-20.861 14.66-24.82 6.09-2.849 12.96-1.804 19.45-2.006 2.83-0.012 5.66-0.037 8.49-0.018zm-41.57 0.035c3.75-0.135 6.4 4.653 4.28 7.745-1.9 3.377-7.59 3.07-9.01-0.598-1.53-3.235 1.14-7.294 4.73-7.147zm70.62 0c3.74-0.124 6.47 4.623 4.29 7.745-1.86 3.308-7.44 3.112-8.93-0.457-1.64-3.243 0.98-7.431 4.64-7.288zm-71.12 34.484h7.68v314.68h-8.25v-314.68l0.29-0.003h0.28zm14.19 0h19.09v314.68h-19.65v-314.68l0.28-0.003h0.28zm27.95 0h15.97v314.68h-16.53v-314.68l0.28-0.003h0.28zm22.45 0h7.71v314.68h-8.27v-314.68l0.28-0.003h0.28zm48.13 0.273c-6.16 0.104-12.33 0.015-18.49 0.044v345h62.46c-0.03-102.14 0.07-204.27-0.06-306.41-0.69-15.67-11.29-30.3-25.97-35.837-5.69-2.226-11.85-2.923-17.94-2.793zm-155.27 0.053c-15.01-0.794-30.02 7.427-37.36 20.507-4.6 7.75-5.85 16.88-5.39 25.76v298.72h62.46v-345c-6.57 0.009-13.14-0.005-19.71 0.013zm149.64 19.397c1.93-0.02 3.86 0.04 5.74 0.41v27.64h-12.06v-28.02c2.11 0.03 4.21 0.02 6.32-0.03zm23.24 0.02c4.91-0.25 10.01 1.25 13.3 5.05 3.37 3.61 4.49 8.73 4.03 13.56v9.42h-24.26v-27.99c2.31 0.04 4.62 0 6.93-0.04zm-168.58 0.01h8.88v28.02h-12.08v-27.65c1.07-0.14 2.12-0.38 3.2-0.37zm-22.98 0.03h9.23v27.99h-24.29c0.34-5.63-0.65-11.39 0.63-16.93 1.78-6.27 7.87-11.02 14.43-11.06zm191.56 35.96c4.73-0.24 9.65 1.15 12.93 4.65 3.53 3.55 4.88 8.76 4.4 13.68v9.71h-24.26v-28c2.31 0.04 4.62 0 6.93-0.04zm-23.24 0.02c1.92-0.03 3.85 0.03 5.74 0.34v27.71h-12.06v-28.03c2.11 0.03 4.21 0.03 6.32-0.02zm-168.32 0.02h9.23v28h-24.29c0.36-5.73-0.71-11.63 0.72-17.25 1.91-6.12 7.87-10.7 14.34-10.75zm22.71 0h9.15v28.03h-12.08v-27.71c0.99-0.1 1.94-0.32 2.93-0.32zm216.38 34.9c-3.77 0.05-7.53 0.03-11.3 0.04v243.31h44.85c-0.03-71.93 0.08-143.86-0.06-215.78-0.63-13.42-11.64-25.53-25.01-27.2-2.79-0.35-5.65-0.4-8.48-0.37zm-289.17 0.04c-13.17 0.09-25.43 10.18-28.01 23.02-1.39 7.32-0.44 14.84-0.71 22.25v198.04h44.86v-243.31c-5.38 0-10.76-0.01-16.14 0zm241.77 1.02c4.78-0.21 9.76 1.23 12.99 4.85 3.48 3.61 4.68 8.83 4.21 13.76v9.43h-24.26v-28c2.35 0.04 4.71-0.01 7.06-0.04zm-23.37 0.01c1.92-0.01 3.86 0.03 5.74 0.39v27.64h-12.06v-28c2.11 0.03 4.21 0.03 6.32-0.03zm-168.27 0.03h9.18v28h-24.29c0.34-5.64-0.65-11.43 0.64-16.97 1.81-6.28 7.9-11 14.47-11.03zm22.57 0h9.24v28h-12.08v-27.66c0.95-0.1 1.89-0.28 2.84-0.34zm217.68 2.28c5.67-0.19 11.59 0.58 16.36 3.83 7.29 4.61 11.81 13.13 11.33 21.79 0.48 2.2-2.6 0.84-3.95 1.22h-34.16v-26.8c3.47 0.07 6.94 0.01 10.42-0.04zm-290.43 0.04h14.06v26.8h-38.04c-0.99-10.29 5.09-20.85 14.67-24.8 2.93-1.25 6.11-1.96 9.31-2zm241.82 33.63c4.68-0.2 9.56 1.18 12.8 4.66 3.52 3.55 4.88 8.75 4.4 13.68v9.74h-24.26v-28.03c2.35 0.03 4.71-0.01 7.06-0.05zm-23.37 0.02c1.92-0.02 3.85 0.04 5.74 0.35v27.71h-12.06v-28.03c2.11 0.03 4.21 0.02 6.32-0.03zm-168.27 0.03h9.18v28.03h-24.29c0.36-5.74-0.71-11.64 0.71-17.27 1.92-6.16 7.93-10.72 14.4-10.76zm22.93 0h8.88v28.03h-12.08v-27.71c1.07-0.14 2.12-0.33 3.2-0.32zm231.92 4.93c3.79-0.21 7.91 0.61 10.42 3.69 2.65 2.93 2.98 7.08 2.67 10.86v5.17h-17.16v-19.68c1.36 0.01 2.71-0.01 4.07-0.04zm-318.51 0.04h6.62v19.68h-17.2c0.48-5.09-1.21-10.97 2.18-15.36 1.96-2.6 5.12-4.29 8.4-4.32zm17.3 3.26c3.89-0.38 6.73 4.63 4.48 7.79-1.85 3.31-7.42 3.03-8.88-0.5-1.66-3.14 0.86-7.3 4.4-7.29zm284.84 0c3.86-0.37 6.74 4.57 4.52 7.74-1.85 3.36-7.49 3.11-8.93-0.5-1.6-3.13 0.88-7.25 4.41-7.24zm16.44 21.03c3.86-0.22 8.1 0.72 10.56 3.94 2.55 2.98 2.73 7.15 2.46 10.89-0.2 1.54 0.38 3.83-0.29 4.89h-16.87v-19.68c1.38 0.01 2.76-0.03 4.14-0.04zm-318.73 0.04h6.77v19.68h-17.2c0.48-5.04-1.19-10.78 2.06-15.17 1.91-2.68 5.07-4.41 8.37-4.51zm17.45 3.38c3.89-0.38 6.73 4.64 4.48 7.79-1.82 3.25-7.25 3.06-8.81-0.35-1.78-3.14 0.71-7.45 4.33-7.44zm284.84 0c3.77-0.36 6.68 4.41 4.62 7.57-1.7 3.4-7.32 3.41-8.93-0.11-1.78-3.11 0.68-7.48 4.31-7.46zm-46.86 3.27c4.76-0.21 9.72 1.22 12.98 4.83 3.5 3.61 4.72 8.85 4.24 13.8v9.45h-24.26v-28.03c2.34 0.04 4.69-0.01 7.04-0.05zm-23.35 0.02c1.92-0.02 3.85 0.04 5.74 0.35v27.71h-12.06v-28.03c2.11 0.03 4.21 0.02 6.32-0.03zm-168.27 0.03h9.18v28.03h-24.29c0.34-5.65-0.65-11.45 0.64-17.01 1.81-6.27 7.9-10.98 14.47-11.02zm22.93 0h8.88v28.03h-12.08v-27.71c1.08-0.11 2.11-0.34 3.2-0.32zm231.99 17.59c3.88-0.22 8.1 0.72 10.57 3.95 2.55 3 2.71 7.14 2.45 10.88-0.2 1.54 0.38 3.83-0.29 4.9h-16.87v-19.68c1.38 0.01 2.76-0.03 4.14-0.05zm-318.58 0.05h6.62v19.68h-17.2c0.48-5.14-1.24-11.05 2.26-15.45 1.94-2.55 5.09-4.2 8.32-4.23zm17.3 3.49c3.89-0.38 6.73 4.64 4.48 7.79-1.82 3.25-7.25 3.06-8.81-0.35-1.78-3.14 0.7-7.45 4.33-7.44zm284.66 0c3.87-0.49 6.93 4.4 4.75 7.63-1.71 3.38-7.32 3.31-8.9-0.2-1.72-3.07 0.62-7.29 4.15-7.43zm-46.79 14.83c4.73-0.24 9.65 1.15 12.93 4.66 3.53 3.54 4.88 8.75 4.4 13.67v9.74h-24.26v-28.03c2.31 0.04 4.62 0 6.93-0.04zm-23.24 0.02c1.92-0.02 3.86 0.03 5.74 0.39v27.66h-12.06v-28.03c2.11 0.03 4.21 0.03 6.32-0.02zm-168.32 0.02h9.23v28.03h-24.29c0.36-5.74-0.71-11.65 0.72-17.28 1.91-6.11 7.87-10.7 14.34-10.75zm22.69 0h9.17v28.03h-12.08v-27.69c0.98-0.09 1.93-0.3 2.91-0.34zm232.21 5.93c3.79-0.21 7.91 0.61 10.42 3.69 2.64 2.93 2.98 7.08 2.67 10.86v5.17h-17.16v-19.68c1.36 0.01 2.71-0.01 4.07-0.04zm-318.51 0.04h6.62v19.68h-17.2c0.48-5.02-1.17-10.75 2.02-15.14 1.95-2.72 5.18-4.51 8.56-4.54zm17.3 3.61c3.88-0.38 6.73 4.64 4.48 7.79-1.82 3.25-7.25 3.06-8.81-0.35-1.79-3.12 0.72-7.46 4.33-7.44zm284.66 0c3.87-0.49 6.93 4.4 4.75 7.63-1.71 3.38-7.32 3.31-8.9-0.2-1.72-3.07 0.62-7.29 4.15-7.43zm110.57 7.93c-20.63 0.13-41.28 0.02-61.91 0.05v24.85h79.13c-0.06-5.92 0.89-12.55-2.8-17.62-3.12-4.72-8.82-7.45-14.42-7.28zm-505.17 0.06c-8.58-0.03-16.3 7.77-16.04 16.39-0.11 2.82 0.05 5.63-0.01 8.45h79.15v-24.85c-21.04 0.01-42.07 0-63.1 0.01zm411.22 12.69c3.86-0.22 8.02 0.71 10.5 3.88 2.61 3 2.78 7.2 2.52 10.98-0.2 1.52 0.38 3.81-0.29 4.86h-16.87v-19.68c1.38 0.01 2.76-0.03 4.14-0.04zm-318.73 0.04h6.77v19.68h-17.2c0.48-5.02-1.18-10.77 2.05-15.14 1.9-2.68 5.07-4.43 8.38-4.54zm17.28 3.73c3.86-0.49 6.89 4.42 4.73 7.63-1.7 3.4-7.31 3.28-8.89-0.19-1.75-3.08 0.62-7.3 4.16-7.44zm284.83 0c3.86-0.49 6.93 4.4 4.75 7.63-1.71 3.38-7.32 3.31-8.9-0.2-1.72-3.08 0.63-7.29 4.15-7.43zm-46.66 1.93c4.78-0.21 9.76 1.24 12.99 4.86 3.48 3.6 4.68 8.82 4.21 13.75v9.46h-24.26v-28.03c2.35 0.04 4.71-0.01 7.06-0.04zm-191.64 0.04h9.18v28.03h-24.29c0.34-5.65-0.65-11.46 0.64-17.01 1.8-6.25 7.91-11 14.47-11.02zm168.27 0c1.92-0.02 3.85 0.04 5.74 0.35v27.68h-12.06v-28c2.11 0.03 4.21 0.02 6.32-0.03zm-145.34 0.03h8.88v28h-12.08v-27.68c1.07-0.13 2.12-0.33 3.2-0.32zm356.71 15.19c-30.89 0.12-61.79 0.02-92.68 0.05v24.82h109.89c-0.06-5.91 0.92-12.52-2.79-17.58-3.09-4.72-8.83-7.45-14.42-7.29zm-566.71 0.06c-8.57-0.03-16.313 7.78-16.038 16.38-0.105 2.81 0.04 5.62-0.009 8.43h109.92v-24.82c-31.29 0.01-62.58 0-93.87 0.01zm441.99 3.31c3.77-0.2 7.82 0.64 10.31 3.66 2.69 2.95 3.02 7.13 2.71 10.93v5.14h-17.16v-19.68c1.38 0.01 2.76-0.03 4.14-0.05zm-318.58 0.05h6.62v19.68h-17.2c0.47-5.13-1.22-11.03 2.25-15.42 1.96-2.58 5.07-4.22 8.33-4.26zm17.13 3.84c3.86-0.49 6.89 4.42 4.73 7.63-1.7 3.4-7.31 3.29-8.89-0.19-1.76-3.07 0.63-7.31 4.16-7.44zm284.83 0c3.86-0.49 6.93 4.4 4.75 7.63-1.71 3.38-7.32 3.31-8.9-0.2-1.72-3.07 0.63-7.3 4.15-7.43zm-46.65 13.48c4.69-0.21 9.55 1.18 12.8 4.68 3.61 3.63 4.88 8.95 4.39 13.97v9.42h-24.26v-28.03c2.35 0.04 4.71-0.01 7.07-0.04zm-23.38 0.02c1.93-0.02 3.86 0.03 5.74 0.4v27.65h-12.06v-28.03c2.11 0.03 4.21 0.03 6.32-0.02zm-168.27 0.02h9.18v28.03h-24.29c0.34-5.64-0.65-11.43 0.64-16.98 1.81-6.28 7.9-11.01 14.47-11.05zm22.93 0h8.88v28.03h-12.08v-27.66c1.07-0.14 2.12-0.37 3.2-0.37zm231.99 6.96c3.88-0.23 8.1 0.72 10.57 3.95 2.55 2.99 2.71 7.13 2.45 10.88-0.2 1.52 0.38 3.81-0.29 4.86h-16.87v-19.65c1.38 0.01 2.76-0.03 4.14-0.04zm-318.58 0.04h6.62v19.65h-17.2c0.47-5.12-1.22-11.05 2.26-15.43 1.95-2.54 5.08-4.18 8.32-4.22zm17.13 3.93c3.86-0.49 6.89 4.41 4.73 7.63-1.7 3.41-7.31 3.29-8.89-0.19-1.76-3.06 0.64-7.32 4.16-7.44zm285 0c3.86-0.36 6.73 4.53 4.56 7.73-1.79 3.17-7.03 3.22-8.73-0.05-2.01-3.14 0.45-7.68 4.17-7.68zm168.01 1.97c-39.08 0.13-78.18 0.02-117.26 0.06-2.4-0.71-2.54 0.84-2.26 2.81v22h136.73c-0.07-5.87 0.89-12.43-2.72-17.48-3.12-4.78-8.85-7.56-14.49-7.39zm-605.62 0.07c-5.668 0.12-11.395-0.23-17.031 0.17-7.916 1.19-14.265 8.8-13.791 16.84-0.049 2.6 0.033 5.19 0.008 7.79h136.75v-24.81c-35.31 0-70.63-0.01-105.94 0.01zm433.1 34.75c0.58-0.04 1.18 0.11 1.6 0.52 0.1-0.79 1.64-0.29 2.4-0.48 2.51-0.09 5.11 1.8 5 4.48 0.23 2.58-0.17 5.18 0.05 7.76h-14.45c0.43-3.3-0.75-6.93 0.7-10.03 0.98-1.69 2.9-2.17 4.7-2.25zm-306.26 1.38c0.59-0.02 1.22 0.09 1.69 0.48 0.06-0.76 1.51-0.26 2.19-0.47 2.65-0.16 5.43 1.86 5.22 4.69 0.17 2.53-0.13 5.06 0.04 7.58h-14.45c0.44-3.32-0.76-6.97 0.73-10.09 0.98-1.61 2.78-2.19 4.58-2.19zm320.42 1.19c2.9-0.35 4.53 3.92 2.21 5.65-2.13 2.06-6.15-0.46-5.17-3.28 0.34-1.33 1.59-2.33 2.96-2.37zm9.47 0c2.91-0.35 4.57 3.92 2.22 5.65-2.07 1.99-6-0.28-5.24-3.08 0.26-1.43 1.6-2.54 3.02-2.57zm9.47 0c2.93-0.36 4.56 3.99 2.18 5.66-2.12 2.04-6.08-0.45-5.13-3.24 0.29-1.35 1.58-2.39 2.95-2.42zm-324.94 1.33c2.8-0.13 4.31 3.96 2.05 5.65-2.07 2-6-0.24-5.23-3.06 0.27-1.49 1.68-2.61 3.18-2.59zm9.52 0c2.87-0.1 4.23 4.13 1.89 5.75-2.17 1.9-6.03-0.56-5.08-3.35 0.37-1.41 1.73-2.43 3.19-2.4zm9.45 0c2.91-0.12 4.31 4.22 1.86 5.79-2.2 1.82-5.93-0.6-5.05-3.37 0.37-1.42 1.73-2.44 3.19-2.42zm208.4 4.05c2.88-0.19 6.04 1.36 6.67 4.36 0.72 3.27-0.13 6.64 0.29 9.94 0.24 1.22-0.94 2.29-2.1 1.79h-7.41v-16.01c0.85 0.04 1.7-0.06 2.55-0.08zm-4.5 0.01c1.25-0.24 2.13 0.97 1.74 2.1v13.98h-9.47c0.27-4.07-0.47-8.25 0.37-12.26 0.88-2.45 3.52-4.06 6.06-3.71 0.43-0.05 0.86-0.11 1.3-0.11zm-174.31 0.96c3.02-0.26 6.4 1.39 6.95 4.59 0.55 3.33-0.13 6.72 0.22 10.06 0.09 1.32-1.32 1.84-2.38 1.47h-7.13v-16.04c0.79 0.05 1.56-0.06 2.34-0.08zm-4.9 0.03c1.37-0.28 2.96 0.78 2.45 2.28-0.23 4.58-0.03 9.21-0.1 13.81h-9.47c0.32-4.13-0.54-8.39 0.44-12.43 1.06-2.72 3.91-3.88 6.68-3.66zm196.86 1.36c3.2-0.11 5.17 4.39 2.84 6.6-2.02 2.54-6.77 0.97-6.85-2.26-0.3-2.27 1.73-4.41 4.01-4.34zm12.83 0c3.23-0.11 5.16 4.44 2.79 6.65-2.1 2.53-6.9 0.81-6.81-2.52-0.13-2.2 1.81-4.19 4.02-4.13zm12.82 0c3.1-0.13 5.12 4.2 2.99 6.43-1.85 2.65-6.74 1.34-6.95-1.91-0.4-2.32 1.6-4.59 3.96-4.52zm-204.26 0.97c3.32-0.12 5.18 4.6 2.69 6.78-2.18 2.42-6.83 0.6-6.71-2.7-0.1-2.18 1.83-4.14 4.02-4.08zm12.83 0c3.29-0.12 5.18 4.49 2.76 6.74-2.14 2.4-6.74 0.75-6.76-2.5-0.19-2.22 1.76-4.31 4-4.24zm12.82 0c3.19-0.14 5.19 4.36 2.9 6.58-2.01 2.6-6.81 1.03-6.87-2.26-0.25-2.24 1.71-4.4 3.97-4.32zm37.62 14.53c1.21-0.19 2.08 0.96 1.74 2.08v18.75h-11.92c0.1-4.75-0.14-9.38 0.06-14.13 0.26-4.01 4.28-7.14 8.22-6.54 0.64-0.05 1.27-0.15 1.9-0.16zm5.63 0.03c3.26-0.24 6.91 1 8.33 4.14 1.48 3.42 0.49 7.33 0.77 10.87v5.79h-11.93v-20.74c0.95 0.03 1.88-0.06 2.83-0.06zm19.69 3.79c3.9-0.34 6.79 4.68 4.48 7.85-1.95 3.31-7.59 2.93-8.95-0.72-1.46-3.12 1.01-7.12 4.47-7.13zm18.02 0c3.89-0.34 6.78 4.68 4.47 7.85-1.96 3.34-7.65 2.92-8.97-0.78-1.41-3.1 1.07-7.07 4.5-7.07zm18.05 0c3.89-0.33 6.71 4.66 4.46 7.83-1.93 3.36-7.64 2.94-8.98-0.74-1.45-3.12 1.07-7.08 4.52-7.09z" fill="url(#radialGradient9370)"/>
    <rect id="rect9171" transform="matrix(1.0684 0 0 1.0684 -29.028 -85.189)" rx="21.897" ry="21.897" height="46.532" filter="url(#filter9193)" width="314.78" y="581.57" x="79.378" fill="url(#linearGradient9372)"/>
    <rect id="rect9209" transform="matrix(.93792 0 0 .93792 27.54 -6.7319)" rx="21.897" ry="21.897" height="46.532" filter="url(#filter9193)" width="314.78" y="501.77" x="247.72" fill="url(#linearGradient9374)"/>
    <rect id="rect9213" transform="matrix(.55171 0 0 .55171 230.13 253.43)" rx="21.897" ry="21.897" height="46.532" filter="url(#filter9193)" width="314.78" y="686.95" x="338.04" fill="url(#linearGradient9376)"/>
    <rect id="rect9221" transform="matrix(.79255 0 0 .79255 379.24 88.891)" rx="21.897" ry="21.897" height="46.532" filter="url(#filter9193)" width="314.78" y="581.57" x="79.378" fill="url(#linearGradient9372)"/>
    <rect id="rect9225" transform="matrix(.55171 0 0 .55171 13.496 290.66)" rx="21.897" ry="21.897" height="46.532" filter="url(#filter9193)" width="314.78" y="686.95" x="338.04" fill="url(#linearGradient9376)"/>
    <path id="path9229" d="m71.702 79.842v5.884h29.438c3.98 0 7.28 2.841 7.98 6.617h0.27c0.71-3.776 4.01-6.617 7.99-6.617h29.44v-5.884h-29.44c-4.5 0-8.12 3.621-8.12 8.121 0-4.5-3.62-8.121-8.12-8.121h-29.438z"/>
    <path id="path9241" d="m135.75 103.24v4.6h23.03c3.11 0 5.7 2.22 6.24 5.17h0.22c0.54-2.95 3.12-5.17 6.24-5.17h23.03v-4.6h-23.03c-3.52 0-6.35 2.83-6.35 6.35 0-3.52-2.83-6.35-6.35-6.35h-23.03z"/>
    <path id="path9243" d="m99.474 122.81v3.75h18.746c2.54 0 4.64 1.81 5.09 4.21h0.17c0.45-2.4 2.55-4.21 5.09-4.21h18.75v-3.75h-18.75c-2.87 0-5.17 2.31-5.17 5.17 0-2.86-2.31-5.17-5.18-5.17h-18.746z"/>
    <path id="path9245" d="m139.4 140.96v2.47h12.34c1.67 0 3.05 1.19 3.35 2.77h0.11c0.3-1.58 1.68-2.77 3.35-2.77h12.34v-2.47h-12.34c-1.89 0-3.4 1.52-3.4 3.41 0-1.89-1.52-3.41-3.41-3.41h-12.34z"/>
    <path id="path9247" d="m133.08 161.39v1.61h8.06c1.09 0 2 0.78 2.19 1.81h0.07c0.2-1.03 1.1-1.81 2.19-1.81h8.06v-1.61h-8.06c-1.23 0-2.22 0.99-2.22 2.22 0-1.23-1-2.22-2.23-2.22h-8.06z"/>
    <path id="path9249" d="m156.67 178.63v0.76h3.79c0.51 0 0.94 0.36 1.03 0.85h0.03c0.09-0.49 0.52-0.85 1.03-0.85h3.79v-0.76h-3.79c-0.58 0-1.05 0.47-1.05 1.05 0-0.58-0.46-1.05-1.04-1.05h-3.79z"/>
    <path id="path8701" d="m361.31 439.38c-3.47 0-6.27 2.8-6.27 6.27v5h9.64v-11.27h-3.37zm-6.27 12.77v5.7h9.64v-5.7h-9.64z" fill="#fff"/>
    <path id="path8711" d="m371.37 439.38c3.47 0 6.27 2.8 6.27 6.27v5h-9.64v-11.27h3.37zm6.27 12.77v5.7h-9.64v-5.7h9.64z" fill="#fff"/>
    <path id="path8713" d="m281.48 422.54c-2.58 0-4.66 2.08-4.66 4.66v3.73h7.17v-8.39h-2.51zm-4.66 9.5v4.24h7.17v-4.24h-7.17z" fill="#fff"/>
    <path id="path8715" d="m288.97 422.54c2.59 0 4.67 2.08 4.67 4.66v3.73h-7.18v-8.39h2.51zm4.67 9.5v4.24h-7.18v-4.24h7.18z" fill="#fff"/>
    <path id="path8717" d="m224.07 415.05c-1.86 0-3.36 1.49-3.36 3.35v2.68h5.16v-6.03h-1.8zm-3.36 6.83v3.06h5.16v-3.06h-5.16z" fill="#fff"/>
    <path id="path8719" d="m229.46 415.05c1.86 0 3.36 1.49 3.36 3.35v2.68h-5.17v-6.03h1.81zm3.36 6.83v3.06h-5.17v-3.06h5.17z" fill="#fff"/>
    <path id="path8721" d="m417.1 35.992a4.1129 4.1129 0 1 1 -8.23 0 4.1129 4.1129 0 1 1 8.23 0z" stroke-opacity="0" transform="matrix(.95669 0 0 .95669 -5.5762 412.64)" stroke-miterlimit="0" fill="#fff"/>
    <path id="path8723" d="m417.1 35.992a4.1129 4.1129 0 1 1 -8.23 0 4.1129 4.1129 0 1 1 8.23 0z" stroke-opacity="0" transform="matrix(.95669 0 0 .95669 12.394 412.64)" stroke-miterlimit="0" fill="#fff"/>
    <path id="path8725" d="m417.1 35.992a4.1129 4.1129 0 1 1 -8.23 0 4.1129 4.1129 0 1 1 8.23 0z" stroke-opacity="0" transform="matrix(.95669 0 0 .95669 30.365 412.64)" stroke-miterlimit="0" fill="#fff"/>
    <path id="path8727" d="m417.1 35.992a4.1129 4.1129 0 1 1 -8.23 0 4.1129 4.1129 0 1 1 8.23 0z" stroke-opacity="0" transform="matrix(.68141 0 0 .68141 19.492 403.12)" stroke-miterlimit="0" fill="#fff"/>
    <path id="path8729" d="m417.1 35.992a4.1129 4.1129 0 1 1 -8.23 0 4.1129 4.1129 0 1 1 8.23 0z" stroke-opacity="0" transform="matrix(.68141 0 0 .68141 32.292 403.12)" stroke-miterlimit="0" fill="#fff"/>
    <path id="path8731" d="m417.1 35.992a4.1129 4.1129 0 1 1 -8.23 0 4.1129 4.1129 0 1 1 8.23 0z" stroke-opacity="0" transform="matrix(.68141 0 0 .68141 45.091 403.12)" stroke-miterlimit="0" fill="#fff"/>
    <path id="path8733" d="m417.1 35.992a4.1129 4.1129 0 1 1 -8.23 0 4.1129 4.1129 0 1 1 8.23 0z" stroke-opacity="0" transform="matrix(.50310 0 0 .50310 31.414 401.43)" stroke-miterlimit="0" fill="#fff"/>
    <path id="path8735" d="m417.1 35.992a4.1129 4.1129 0 1 1 -8.23 0 4.1129 4.1129 0 1 1 8.23 0z" stroke-opacity="0" transform="matrix(.50310 0 0 .50310 40.865 401.43)" stroke-miterlimit="0" fill="#fff"/>
    <path id="path8737" d="m417.1 35.992a4.1129 4.1129 0 1 1 -8.23 0 4.1129 4.1129 0 1 1 8.23 0z" stroke-opacity="0" transform="matrix(.50310 0 0 .50310 50.315 401.43)" stroke-miterlimit="0" fill="#fff"/>
    <path id="path8739" d="m529.43 413.69c-1.86 0-3.36 1.5-3.36 3.36v2.68h5.17v-6.04h-1.81zm-3.36 6.84v3.05h5.17v-3.05h-5.17z" fill="#fff"/>
    <path id="path8741" d="m534.82 413.69c1.86 0 3.36 1.5 3.36 3.36v2.68h-5.16v-6.04h1.8zm3.36 6.84v3.05h-5.16v-3.05h5.16z" fill="#fff"/>
    <path id="path8743" d="m417.1 35.992a4.1129 4.1129 0 1 1 -8.23 0 4.1129 4.1129 0 1 1 8.23 0z" stroke-opacity="0" transform="matrix(.50310 0 0 .50310 336.78 400.08)" stroke-miterlimit="0" fill="#fff"/>
    <path id="path8745" d="m417.1 35.992a4.1129 4.1129 0 1 1 -8.23 0 4.1129 4.1129 0 1 1 8.23 0z" stroke-opacity="0" transform="matrix(.50310 0 0 .50310 346.23 400.08)" stroke-miterlimit="0" fill="#fff"/>
    <path id="path8747" d="m417.1 35.992a4.1129 4.1129 0 1 1 -8.23 0 4.1129 4.1129 0 1 1 8.23 0z" stroke-opacity="0" transform="matrix(.50310 0 0 .50310 355.68 400.08)" stroke-miterlimit="0" fill="#fff"/>
    <path id="path8749" d="m459.6 421.57c-2.58 0-4.66 2.08-4.66 4.66v3.73h7.17v-8.39h-2.51zm-4.66 9.5v4.24h7.17v-4.24h-7.17z" fill="#fff"/>
    <path id="path8751" d="m467.09 421.57c2.59 0 4.67 2.08 4.67 4.66v3.73h-7.17v-8.39h2.5zm4.67 9.5v4.24h-7.17v-4.24h7.17z" fill="#fff"/>
    <path id="path8753" d="m417.1 35.992a4.1129 4.1129 0 1 1 -8.23 0 4.1129 4.1129 0 1 1 8.23 0z" stroke-opacity="0" transform="matrix(.68141 0 0 .68141 197.61 402.14)" stroke-miterlimit="0" fill="#fff"/>
    <path id="path8755" d="m417.1 35.992a4.1129 4.1129 0 1 1 -8.23 0 4.1129 4.1129 0 1 1 8.23 0z" stroke-opacity="0" transform="matrix(.68141 0 0 .68141 210.41 402.14)" stroke-miterlimit="0" fill="#fff"/>
    <path id="path8757" d="m417.1 35.992a4.1129 4.1129 0 1 1 -8.23 0 4.1129 4.1129 0 1 1 8.23 0z" stroke-opacity="0" transform="matrix(.68141 0 0 .68141 223.21 402.14)" stroke-miterlimit="0" fill="#fff"/>
  </g>
  <metadata>
    <rdf:RDF>
      <cc:Work>
        <dc:format>image/svg+xml</dc:format>
        <dc:type rdf:resource="http://purl.org/dc/dcmitype/StillImage"/>
        <cc:license rdf:resource="http://creativecommons.org/licenses/publicdomain/"/>
        <dc:publisher>
          <cc:Agent rdf:about="http://openclipart.org/">
            <dc:title>Openclipart</dc:title>
          </cc:Agent>
        </dc:publisher>
        <dc:title>City Art Deco</dc:title>
        <dc:date>2008-10-16T20:51:51</dc:date>
        <dc:description>A stylized cityscape.</dc:description>
        <dc:source>http://openclipart.org/detail/19603/city-art-deco-by-tiothy</dc:source>
        <dc:creator>
          <cc:Agent>
            <dc:title>tiothy</dc:title>
          </cc:Agent>
        </dc:creator>
        <dc:subject>
          <rdf:Bag>
            <rdf:li>art deco</rdf:li>
            <rdf:li>building</rdf:li>
            <rdf:li>city</rdf:li>
            <rdf:li>clip art</rdf:li>
            <rdf:li>clipart</rdf:li>
            <rdf:li>image</rdf:li>
            <rdf:li>line art</rdf:li>
            <rdf:li>media</rdf:li>
            <rdf:li>png</rdf:li>
            <rdf:li>public domain</rdf:li>
            <rdf:li>retro</rdf:li>
            <rdf:li>sky scraper</rdf:li>
            <rdf:li>svg</rdf:li>
            <rdf:li>urban</rdf:li>
          </rdf:Bag>
        </dc:subject>
      </cc:Work>
      <cc:License rdf:about="http://creativecommons.org/licenses/publicdomain/">
        <cc:permits rdf:resource="http://creativecommons.org/ns#Reproduction"/>
        <cc:permits rdf:resource="http://creativecommons.org/ns#Distribution"/>
        <cc:permits rdf:resource="http://creativecommons.org/ns#DerivativeWorks"/>
      </cc:License>
    </rdf:RDF>
  </metadata>
</svg>
