<?xml version="1.0" encoding="UTF-8" standalone="no"?>
<!-- Created with Inkscape (http://www.inkscape.org/) -->
<svg xmlns:inkscape="http://www.inkscape.org/namespaces/inkscape" xmlns:rdf="http://www.w3.org/1999/02/22-rdf-syntax-ns#" xmlns="http://www.w3.org/2000/svg" xmlns:xlink="http://www.w3.org/1999/xlink" xmlns:ns1="http://sozi.baierouge.fr" xmlns:cc="http://creativecommons.org/ns#" xmlns:sodipodi="http://sodipodi.sourceforge.net/DTD/sodipodi-0.dtd" xmlns:dc="http://purl.org/dc/elements/1.1/" id="svg2" xml:space="preserve" viewBox="0 0 371.61 368.9" version="1.1" inkscape:version="0.91 r13725">
  <defs id="defs6">
    <linearGradient id="linearGradient24" y2="91.002" gradientUnits="userSpaceOnUse" x2="-117.74" gradientTransform="matrix(-.09128 .7948 .7948 .09128 .0090234 295.13)" y1="91.002" x1="-262.41">
      <stop id="stop26" style="stop-color:#29545a" offset="0"/>
      <stop id="stop28" style="stop-color:#60a183" offset=".33330"/>
      <stop id="stop32" style="stop-color:#b7dccd" offset="1"/>
    </linearGradient>
    <linearGradient id="linearGradient46" y2="171.91" gradientUnits="userSpaceOnUse" x2="103.95" gradientTransform="matrix(-.0912 .7948 .7948 .0912 .0089962 295.13)" y1="171.91" x1="-583.98">
      <stop id="stop48" style="stop-color:#29545a" offset="0"/>
      <stop id="stop50" style="stop-color:#61a284" offset=".33330"/>
      <stop id="stop54" style="stop-color:#b7dccd" offset="1"/>
    </linearGradient>
    <linearGradient id="linearGradient68" y2="267.19" gradientUnits="userSpaceOnUse" x2="370.21" gradientTransform="matrix(.79784 -.05896 -.05896 -.79784 .0088177 295.13)" y1="267.19" x1="38.728">
      <stop id="stop70" style="stop-color:#bbd6c1" offset="0"/>
      <stop id="stop72" style="stop-color:#aec9b2" offset=".12550"/>
      <stop id="stop74" style="stop-color:#9ab59c" offset=".35690"/>
      <stop id="stop76" style="stop-color:#92ae93" offset="0.502"/>
      <stop id="stop78" style="stop-color:#c2dac7" offset="1"/>
    </linearGradient>
    <clipPath id="clipPath86">
      <path id="path88" d="m18 140.12h266v-141h-266v141z" inkscape:connector-curvature="0"/>
    </clipPath>
    <clipPath id="clipPath92">
      <path id="path94" d="m277.33 111.53c-3.812 0.535-6.012 0.883-6.598 1.043-3.816 0.985-10.429 3.106-19.839 6.36-8.321 2.851-14.977 4.812-19.961 5.878-3.973 0.856-11.403 1.653-22.282 2.403-9.414 0.636-16.773 1.824-22.078 3.558l-0.882 0.282c-5.973 2.425-10.387 4.226-13.239 5.398-5.094 2.051-9.668 3.188-13.719 3.398-11.707 0.614-22.121-0.851-31.242-4.398-3.812-1.492-8.504-2.215-14.078-2.16-6.426 0.348-11.254 0.547-14.48 0.601-2.586 0.051-6.121-0.281-10.602-1-4.961-0.8-8.492-1.242-10.598-1.32-3.523-0.137-7.734-0.137-12.64 0-5.602 0.211-9.817 0.36-12.641 0.438-7.015 0.562-12.801 0.816-17.359 0.761-8.508-0.105-13.774-1.586-15.801-4.441-1.332-1.918-0.801-5.438 1.602-10.559 1.304-2.746 3.16-6.214 5.558-10.402 1.172-2.586 2.012-4.305 2.52-5.156 1.148-1.895 2.465-3.254 3.961-4.082 0.879-0.481 2.199-0.785 3.961-0.918 1.863-0.137 3.183-0.364 3.957-0.684 1.414-0.613 2.734-1.758 3.961-3.437 0.695-0.961 1.707-2.442 3.039-4.442 2.16-2.824 4.882-5.238 8.16-7.238 1.949-1.176 5.121-2.84 9.519-5 3.364-1.789 7.11-4.922 11.243-9.402 2.292-2.504 5.558-6.211 9.8-11.118 3.118-3.335 5.145-4.668 6.078-4 0.348 0.239 0.895 0.973 1.641 2.2 0.906 1.547 1.785 2.8 2.641 3.757 0.8-2 1.8-3.625 3-4.878 0.773-0.774 2.226-1.918 4.359-3.442 1.895-1.359 3.707-3.238 5.441-5.637 0.985-1.363 2.493-3.507 4.52-6.441 0.984-1.281 2.531-2.492 4.641-3.641 2.293-1.226 3.839-2.265 4.636-3.121 1.977-2.105 3.535-6.05 4.68-11.84 1.523-7.757 2.441-12.066 2.762-12.917 2.961-8.028 6.105-7.907 9.441 0.359 0.906 2.215 2.106 5.879 3.598 11 1.336 4.508 2.254 7.215 2.762 8.121 1.066 1.945 2.625 3.117 4.679 3.52 3.68 0.718 5.746 1.187 6.199 1.398 2.586 1.148 5.176 3.375 7.762 6.68 1.465 1.894 3.481 4.75 6.039 8.562 1.121 1.492 2.426 3.707 3.918 6.641 1.602 3.144 2.84 5.359 3.723 6.636 1.172 1.68 2.84 3.43 5 5.243 2.078 1.757 4.066 3.132 5.961 4.121 1.492 0.746 2.812 1.133 3.957 1.156 0.027 0 1.441-0.133 4.242-0.398 3.227-0.348 6.414-0.414 9.559-0.2 3.867 0.266 6.945 0.961 9.242 2.078 2.316 1.122 7.011 3.629 14.078 7.52 5.707 3.121 10.398 5.43 14.078 6.922 1.789 0.719 3.695 1.922 5.723 3.601 0.16 0.133 1.824 1.653 5 4.559 2.586 2.32 5.359 3.918 8.32 4.801 0.586 0.16 0.945 0.25 1.078 0.277 0.242 0 0.496-0.066 0.762-0.199-0.082-0.691-0.496-1.453-1.242-2.277-0.692-0.75-1.25-1.442-1.68-2.082-0.184-0.321-0.387-0.735-0.598-1.239-0.347-0.855-0.535-1.297-0.562-1.32-0.504-0.883-0.735-1.402-0.68-1.563 0.082-0.21 0.32-0.238 0.723-0.078 0.238 0.078 0.531 0.215 0.879 0.399 0.453 0.187 1.414 0.762 2.879 1.722 3.281 1.68 6.253 3.907 8.921 6.68 2.372 2.453 3.985 4.199 4.84 5.238 1.758 2.161 3 4.161 3.719 6-1.148 0.719-3.133 1.293-5.961 1.719z" inkscape:connector-curvature="0"/>
    </clipPath>
    <clipPath id="clipPath100">
      <path id="path102" d="m0 0h298v296h-298v-296z" inkscape:connector-curvature="0"/>
    </clipPath>
    <clipPath id="clipPath104">
      <path id="path106" d="m0 0h298v296h-298v-296z" inkscape:connector-curvature="0"/>
    </clipPath>
    <clipPath id="clipPath108">
      <path id="path110" d="m0 0h298v296h-298v-296z" inkscape:connector-curvature="0"/>
    </clipPath>
    <clipPath id="clipPath112">
      <path id="path114" d="m23 3h259v134h-259v-134z" inkscape:connector-curvature="0"/>
    </clipPath>
    <clipPath id="clipPath116">
      <path id="path118" d="m23 3h259v134h-259v-134z" inkscape:connector-curvature="0"/>
    </clipPath>
    <linearGradient id="linearGradient124" y2="-15794" gradientUnits="userSpaceOnUse" x2="36.31" gradientTransform="matrix(.0056 -.8 .8 .0056 12787 182.81)" y1="-15794" x1="-24.066">
      <stop id="stop126" style="stop-color:#90b5b0" offset="0"/>
      <stop id="stop128" style="stop-color:#bddac3" offset="1"/>
    </linearGradient>
    <mask id="mask130">
      <g id="g132">
        <g id="g134" clip-path="url(#clipPath112)">
          <g id="g136">
            <g id="g140">
              <g id="g142" clip-path="url(#clipPath116)">
                <g id="g144">
                  <g id="g146">
                    <g id="g148">
                      <g id="g150">
                        <path id="path152" style="fill-rule:evenodd;fill:url(#linearGradient124)" d="m258.65 97.969c-2.371-1.254-4.48-2.52-6.32-3.801-6.32-4.375-11.117-9.387-14.398-15.039-1.868-0.402-3.266-0.707-4.2-0.922-1.652-0.398-3.015-0.867-4.082-1.398 0.375 0.851 1.028 1.851 1.961 3 0.536 0.664 1.321 1.586 2.36 2.757 0.828 0.961 2.242 2.348 4.242 4.161 1.891 1.761 3.293 3.187 4.199 4.281 0.453 0.535 2.426 2.133 5.918 4.801 3.067 2.64 4.188 4.48 3.36 5.519-1.145-1.121-2.879-2.348-5.2-3.68-2.586-1.441-4.437-2.507-5.558-3.199 0.347 0.797 0.64 1.344 0.879 1.637-2.079-1.145-4.895-2.918-8.442-5.316-3.84-2.618-6.597-4.415-8.277-5.403 0.32 0.508 0.894 1.16 1.719 1.961 0.828 0.852 1.402 1.508 1.718 1.961 0.297 0.426 0.629 1.051 1 1.879 0.375 0.852 0.696 1.492 0.961 1.918-1.144-0.184-2.48-0.691-4-1.52-0.371-0.211-1.586-0.957-3.64-2.238-1.039-0.613-2.934-2.055-5.68-4.32-0.48-0.399-1.172-0.801-2.078-1.199-0.906-0.426-1.574-0.801-2-1.121-0.426-0.321-1.082-1.028-1.961-2.122-0.695-0.824-1.441-1.386-2.238-1.679-2.27-1.598-4.215-2.879-5.84-3.84-3.121-1.867-4.348-1.735-3.684 0.402 0.348 0.824 0.934 1.625 1.762 2.399 0.453 0.425 1.187 1.066 2.199 1.922 0.586 0.503 1.336 1.359 2.242 2.558 0.891 1.18 1.606 2.016 2.141 2.5-0.895-0.769-2.66-1.668-5.301-2.699-2.613-1.016-4.469-2.016-5.562-3-2.481-2.563-4.371-4.453-5.68-5.68-2.398-2.269-3.52-2.707-3.359-1.32 0.668 2.183 2.054 4.398 4.16 6.641 1.172 1.226 3.32 3.132 6.441 5.718 2.906 2.426 5 4.36 6.278 5.801 2 2.266 3.242 4.547 3.722 6.84-4.801 0.828-8.707 0.918-11.722 0.277-1.758-0.371-4.774-2.293-9.04-5.758-3.972-3.281-8.078-7.121-12.32-11.519-4.398-4.563-7.758-8.52-10.078-11.883-2.586-3.785-3.336-6.105-2.242-6.957-0.16-0.746-0.547-1.801-1.16-3.16-0.664-1.414-1.094-2.453-1.278-3.121 1.278-0.028 3.039 0.746 5.278 2.32 2.136 1.492 3.84 2.121 5.121 1.879-2.535-3.785-5.039-6.773-7.52-8.961-0.48-0.426-2.281-1.504-5.398-3.238-3.227-1.813-4.84-2.559-4.84-2.238 0.023 0.292-0.027 0.679-0.16 1.16-0.16 0.531-0.242 0.84-0.242 0.918-3.653-4.16-6.625-8.84-8.918-14.039-2.243-5.121-3.735-10.497-4.481-16.121-0.133-1.067-0.387-3.774-0.762-8.122-0.64-3.757-1.894-5.586-3.757-5.48-1.469 6.215-2.227 9.496-2.282 9.844-0.64 3.57-0.8 6.918-0.48 10.039 0.426 4.16 0.508 7.531 0.238 10.117-0.344 3.441-1.316 6.629-2.918 9.562-1.094 1.758-1.894 3.106-2.398 4.04-0.856 1.624-1.27 3.093-1.242 4.398 0.027 0.961 0.507 2.414 1.441 4.363 0.934 1.891 1.387 3.344 1.359 4.36-0.027 1.332-0.453 2.597-1.281 3.8-1.117 1.411-2 2.559-2.64 3.438-1.465 2.055-2.559 4.055-3.278 6-0.773 2.105-1.187 4.348-1.242 6.723 0 0.238 0.133 1.371 0.402 3.398 0.184 1.465 0.118 2.559-0.203 3.281-0.316 0.719-0.773 1.211-1.359 1.481-0.692 0.316-1.16 0.636-1.399 0.957-1.066 1.386-1.718 2.906-1.961 4.562-0.132 2.024-0.371 3.758-0.718 5.199-3.946-1.121-6.028-4.933-6.242-11.441 0-0.16 0.042-2.84 0.121-8.039 0.054-3.094-0.145-5.375-0.598-6.84-0.59 0.508-1.043 0.918-1.363 1.238-0.614 0.563-1.051 1.067-1.321 1.52-0.105-1.41 0.137-3.051 0.723-4.918 0.348-1.039 0.895-2.602 1.641-4.68 1.093-6.988 1-9.812-0.282-8.48-2.64 2.695-4.668 5.254-6.082 7.68-0.636 1.093-1.679 2.624-3.117 4.601-1.496 2.051-2.547 3.598-3.16 4.641-0.723 1.226-1.453 3.039-2.199 5.437-0.828 2.586-1.508 4.414-2.043 5.481-0.426 0.828-1.32 2.039-2.68 3.64-1.277 1.492-2.117 2.719-2.519 3.68-0.426 0.984-0.532 2.414-0.321 4.281 0.215 1.946 0.176 3.344-0.121 4.199-0.746 2.161-3.051 4.36-6.918 6.598-4.48 2.563-7.199 4.469-8.16 5.723-0.559-0.586-0.894-1.453-1-2.602-0.055-0.664-0.121-1.652-0.199-2.961-0.106-0.718-0.602-2.105-1.481-4.16-0.8-1.84-1.187-3.199-1.16-4.078 0.055-2.027 1.028-4.52 2.918-7.48 2.43-3.84 3.817-6.215 4.16-7.122 0.696-1.73 1.934-4.718 3.723-8.957 0.828-2.668-0.496-2.082-3.961 1.758-2.105 2.321-5.215 5.801-9.32 10.442-4.133 4.664-7.227 8.132-9.281 10.398-1.094 1.199-2.321 3-3.68 5.402-1.465 2.637-2.586 4.438-3.36 5.399-0.906 1.121-2.16 1.68-3.757 1.68-1.95-0.215-3.457-0.282-4.524-0.2-1.57 0.106-2.691 0.532-3.359 1.282-0.692 1.066-1.453 1.933-2.278 2.597-0.562 0.453-1.546 0.735-2.96 0.84-1.68 0.082-2.922 0.16-3.719 0.242-2.961 0.344-4.121 1.84-3.481 4.481 0.293 1.25 1.774 2.636 4.438 4.156 1.414 0.801 3.32 1.883 5.722 3.242 1.704 1.305 3.118 2.215 4.239 2.719 1.519 0.668 3.16 0.933 4.922 0.801 3.039-0.239 6.398-0.188 10.078 0.16 1.254 0.133 4.613 0.558 10.082 1.281 13.383 1.707 27.758 2.863 43.117 3.481 12.934 0.503 27.348 0.636 43.242 0.398 16.746-0.293 30.973-1.055 42.68-2.281 15.519-1.625 29.492-4.305 41.918-8.039 7.949-2.348 16.976-5.946 27.082-10.801 0.398-0.184 2.519-1.348 6.359-3.481 2.613-1.437 4.785-2.425 6.52-2.957l0.199-0.043c0.641-0.183 2.066-0.32 4.281-0.398 1.918-0.266 2.961-0.988 3.121-2.16 0.051-0.348-0.121-0.696-0.519-1.039-0.508-0.403-0.867-0.707-1.082-0.922l-0.559 0.48c-0.055-0.132-0.226-0.332-0.519-0.597-0.27-0.27-0.43-0.453-0.481-0.563 0 0.106-0.043 0.281-0.121 0.52-0.078 0.242-0.121 0.425-0.121 0.562-0.852-0.32-1.453-0.586-1.801-0.801-0.023 0.028-0.023 0.079 0 0.161 0.02 0.058 0.043 0.097 0.063 0.121-0.383-0.172-1.11-0.575-2.18-1.203 0.32 0.64 0.746 1.23 1.277 1.761-0.316-0.187-0.89-0.586-1.718-1.199-0.719-0.508-1.305-0.855-1.758-1.043 0.16 0.215 0.293 0.524 0.398 0.922-1.387 0.16-2.64 0.051-3.761-0.32-0.454-0.133-1.614-0.668-3.477-1.602-4.055-2.023-6.242-3.117-6.563-3.277z" inkscape:connector-curvature="0"/>
                      </g>
                    </g>
                  </g>
                </g>
              </g>
            </g>
          </g>
        </g>
      </g>
    </mask>
    <clipPath id="clipPath154">
      <path id="path156" d="m23 3h259v134h-259v-134z" inkscape:connector-curvature="0"/>
    </clipPath>
    <clipPath id="clipPath158">
      <path id="path160" d="m23 3h259v134h-259v-134z" inkscape:connector-curvature="0"/>
    </clipPath>
    <mask id="mask172">
      <g id="g174">
        <g id="g176" clip-path="url(#clipPath104)">
          <g id="g178">
            <g id="g182">
              <g id="g184" clip-path="url(#clipPath108)">
                <g id="g186">
                  <g id="g188">
                    <g id="g192" mask="url(#mask130)">
                      <g id="g196">
                        <g id="g198" clip-path="url(#clipPath154)">
                          <g id="g200">
                            <g id="g204">
                              <g id="g206" clip-path="url(#clipPath158)">
                                <g id="g208">
                                  <g id="g210">
                                    <g id="g212">
                                      <g id="g214">
                                        <path id="path216" style="fill:url(#linearGradient124);fill-rule:evenodd" d="m258.65 97.969c-2.371-1.254-4.48-2.52-6.32-3.801-6.32-4.375-11.117-9.387-14.398-15.039-1.868-0.402-3.266-0.707-4.2-0.922-1.652-0.398-3.015-0.867-4.082-1.398 0.375 0.851 1.028 1.851 1.961 3 0.536 0.664 1.321 1.586 2.36 2.757 0.828 0.961 2.242 2.348 4.242 4.161 1.891 1.761 3.293 3.187 4.199 4.281 0.453 0.535 2.426 2.133 5.918 4.801 3.067 2.64 4.188 4.48 3.36 5.519-1.145-1.121-2.879-2.348-5.2-3.68-2.586-1.441-4.437-2.507-5.558-3.199 0.347 0.797 0.64 1.344 0.879 1.637-2.079-1.145-4.895-2.918-8.442-5.316-3.84-2.618-6.597-4.415-8.277-5.403 0.32 0.508 0.894 1.16 1.719 1.961 0.828 0.852 1.402 1.508 1.718 1.961 0.297 0.426 0.629 1.051 1 1.879 0.375 0.852 0.696 1.492 0.961 1.918-1.144-0.184-2.48-0.691-4-1.52-0.371-0.211-1.586-0.957-3.64-2.238-1.039-0.613-2.934-2.055-5.68-4.32-0.48-0.399-1.172-0.801-2.078-1.199-0.906-0.426-1.574-0.801-2-1.121-0.426-0.321-1.082-1.028-1.961-2.122-0.695-0.824-1.441-1.386-2.238-1.679-2.27-1.598-4.215-2.879-5.84-3.84-3.121-1.867-4.348-1.735-3.684 0.402 0.348 0.824 0.934 1.625 1.762 2.399 0.453 0.425 1.187 1.066 2.199 1.922 0.586 0.503 1.336 1.359 2.242 2.558 0.891 1.18 1.606 2.016 2.141 2.5-0.895-0.769-2.66-1.668-5.301-2.699-2.613-1.016-4.469-2.016-5.562-3-2.481-2.563-4.371-4.453-5.68-5.68-2.398-2.269-3.52-2.707-3.359-1.32 0.668 2.183 2.054 4.398 4.16 6.641 1.172 1.226 3.32 3.132 6.441 5.718 2.906 2.426 5 4.36 6.278 5.801 2 2.266 3.242 4.547 3.722 6.84-4.801 0.828-8.707 0.918-11.722 0.277-1.758-0.371-4.774-2.293-9.04-5.758-3.972-3.281-8.078-7.121-12.32-11.519-4.398-4.563-7.758-8.52-10.078-11.883-2.586-3.785-3.336-6.105-2.242-6.957-0.16-0.746-0.547-1.801-1.16-3.16-0.664-1.414-1.094-2.453-1.278-3.121 1.278-0.028 3.039 0.746 5.278 2.32 2.136 1.492 3.84 2.121 5.121 1.879-2.535-3.785-5.039-6.773-7.52-8.961-0.48-0.426-2.281-1.504-5.398-3.238-3.227-1.813-4.84-2.559-4.84-2.238 0.023 0.292-0.027 0.679-0.16 1.16-0.16 0.531-0.242 0.84-0.242 0.918-3.653-4.16-6.625-8.84-8.918-14.039-2.243-5.121-3.735-10.497-4.481-16.121-0.133-1.067-0.387-3.774-0.762-8.122-0.64-3.757-1.894-5.586-3.757-5.48-1.469 6.215-2.227 9.496-2.282 9.844-0.64 3.57-0.8 6.918-0.48 10.039 0.426 4.16 0.508 7.531 0.238 10.117-0.344 3.441-1.316 6.629-2.918 9.562-1.094 1.758-1.894 3.106-2.398 4.04-0.856 1.624-1.27 3.093-1.242 4.398 0.027 0.961 0.507 2.414 1.441 4.363 0.934 1.891 1.387 3.344 1.359 4.36-0.027 1.332-0.453 2.597-1.281 3.8-1.117 1.411-2 2.559-2.64 3.438-1.465 2.055-2.559 4.055-3.278 6-0.773 2.105-1.187 4.348-1.242 6.723 0 0.238 0.133 1.371 0.402 3.398 0.184 1.465 0.118 2.559-0.203 3.281-0.316 0.719-0.773 1.211-1.359 1.481-0.692 0.316-1.16 0.636-1.399 0.957-1.066 1.386-1.718 2.906-1.961 4.562-0.132 2.024-0.371 3.758-0.718 5.199-3.946-1.121-6.028-4.933-6.242-11.441 0-0.16 0.042-2.84 0.121-8.039 0.054-3.094-0.145-5.375-0.598-6.84-0.59 0.508-1.043 0.918-1.363 1.238-0.614 0.563-1.051 1.067-1.321 1.52-0.105-1.41 0.137-3.051 0.723-4.918 0.348-1.039 0.895-2.602 1.641-4.68 1.093-6.988 1-9.812-0.282-8.48-2.64 2.695-4.668 5.254-6.082 7.68-0.636 1.093-1.679 2.624-3.117 4.601-1.496 2.051-2.547 3.598-3.16 4.641-0.723 1.226-1.453 3.039-2.199 5.437-0.828 2.586-1.508 4.414-2.043 5.481-0.426 0.828-1.32 2.039-2.68 3.64-1.277 1.492-2.117 2.719-2.519 3.68-0.426 0.984-0.532 2.414-0.321 4.281 0.215 1.946 0.176 3.344-0.121 4.199-0.746 2.161-3.051 4.36-6.918 6.598-4.48 2.563-7.199 4.469-8.16 5.723-0.559-0.586-0.894-1.453-1-2.602-0.055-0.664-0.121-1.652-0.199-2.961-0.106-0.718-0.602-2.105-1.481-4.16-0.8-1.84-1.187-3.199-1.16-4.078 0.055-2.027 1.028-4.52 2.918-7.48 2.43-3.84 3.817-6.215 4.16-7.122 0.696-1.73 1.934-4.718 3.723-8.957 0.828-2.668-0.496-2.082-3.961 1.758-2.105 2.321-5.215 5.801-9.32 10.442-4.133 4.664-7.227 8.132-9.281 10.398-1.094 1.199-2.321 3-3.68 5.402-1.465 2.637-2.586 4.438-3.36 5.399-0.906 1.121-2.16 1.68-3.757 1.68-1.95-0.215-3.457-0.282-4.524-0.2-1.57 0.106-2.691 0.532-3.359 1.282-0.692 1.066-1.453 1.933-2.278 2.597-0.562 0.453-1.546 0.735-2.96 0.84-1.68 0.082-2.922 0.16-3.719 0.242-2.961 0.344-4.121 1.84-3.481 4.481 0.293 1.25 1.774 2.636 4.438 4.156 1.414 0.801 3.32 1.883 5.722 3.242 1.704 1.305 3.118 2.215 4.239 2.719 1.519 0.668 3.16 0.933 4.922 0.801 3.039-0.239 6.398-0.188 10.078 0.16 1.254 0.133 4.613 0.558 10.082 1.281 13.383 1.707 27.758 2.863 43.117 3.481 12.934 0.503 27.348 0.636 43.242 0.398 16.746-0.293 30.973-1.055 42.68-2.281 15.519-1.625 29.492-4.305 41.918-8.039 7.949-2.348 16.976-5.946 27.082-10.801 0.398-0.184 2.519-1.348 6.359-3.481 2.613-1.437 4.785-2.425 6.52-2.957l0.199-0.043c0.641-0.183 2.066-0.32 4.281-0.398 1.918-0.266 2.961-0.988 3.121-2.16 0.051-0.348-0.121-0.696-0.519-1.039-0.508-0.403-0.867-0.707-1.082-0.922l-0.559 0.48c-0.055-0.132-0.226-0.332-0.519-0.597-0.27-0.27-0.43-0.453-0.481-0.563 0 0.106-0.043 0.281-0.121 0.52-0.078 0.242-0.121 0.425-0.121 0.562-0.852-0.32-1.453-0.586-1.801-0.801-0.023 0.028-0.023 0.079 0 0.161 0.02 0.058 0.043 0.097 0.063 0.121-0.383-0.172-1.11-0.575-2.18-1.203 0.32 0.64 0.746 1.23 1.277 1.761-0.316-0.187-0.89-0.586-1.718-1.199-0.719-0.508-1.305-0.855-1.758-1.043 0.16 0.215 0.293 0.524 0.398 0.922-1.387 0.16-2.64 0.051-3.761-0.32-0.454-0.133-1.614-0.668-3.477-1.602-4.055-2.023-6.242-3.117-6.563-3.277z" inkscape:connector-curvature="0"/>
                                      </g>
                                    </g>
                                  </g>
                                </g>
                              </g>
                            </g>
                          </g>
                        </g>
                      </g>
                    </g>
                  </g>
                </g>
              </g>
            </g>
          </g>
        </g>
      </g>
    </mask>
    <clipPath id="clipPath218">
      <path id="path220" d="m0 0h298v296h-298v-296z" inkscape:connector-curvature="0"/>
    </clipPath>
    <clipPath id="clipPath222">
      <path id="path224" d="m0 0h298v296h-298v-296z" inkscape:connector-curvature="0"/>
    </clipPath>
    <clipPath id="clipPath226">
      <path id="path228" d="m23 3h259v134h-259v-134z" inkscape:connector-curvature="0"/>
    </clipPath>
    <clipPath id="clipPath230">
      <path id="path232" d="m23 3h259v134h-259v-134z" inkscape:connector-curvature="0"/>
    </clipPath>
    <mask id="mask244">
      <g id="g246">
        <g id="g248" clip-path="url(#clipPath226)">
          <g id="g250">
            <g id="g254">
              <g id="g256" clip-path="url(#clipPath230)">
                <g id="g258">
                  <g id="g260">
                    <g id="g262">
                      <g id="g264">
                        <path id="path266" style="fill:url(#linearGradient124);fill-rule:evenodd" d="m258.65 97.969c-2.371-1.254-4.48-2.52-6.32-3.801-6.32-4.375-11.117-9.387-14.398-15.039-1.868-0.402-3.266-0.707-4.2-0.922-1.652-0.398-3.015-0.867-4.082-1.398 0.375 0.851 1.028 1.851 1.961 3 0.536 0.664 1.321 1.586 2.36 2.757 0.828 0.961 2.242 2.348 4.242 4.161 1.891 1.761 3.293 3.187 4.199 4.281 0.453 0.535 2.426 2.133 5.918 4.801 3.067 2.64 4.188 4.48 3.36 5.519-1.145-1.121-2.879-2.348-5.2-3.68-2.586-1.441-4.437-2.507-5.558-3.199 0.347 0.797 0.64 1.344 0.879 1.637-2.079-1.145-4.895-2.918-8.442-5.316-3.84-2.618-6.597-4.415-8.277-5.403 0.32 0.508 0.894 1.16 1.719 1.961 0.828 0.852 1.402 1.508 1.718 1.961 0.297 0.426 0.629 1.051 1 1.879 0.375 0.852 0.696 1.492 0.961 1.918-1.144-0.184-2.48-0.691-4-1.52-0.371-0.211-1.586-0.957-3.64-2.238-1.039-0.613-2.934-2.055-5.68-4.32-0.48-0.399-1.172-0.801-2.078-1.199-0.906-0.426-1.574-0.801-2-1.121-0.426-0.321-1.082-1.028-1.961-2.122-0.695-0.824-1.441-1.386-2.238-1.679-2.27-1.598-4.215-2.879-5.84-3.84-3.121-1.867-4.348-1.735-3.684 0.402 0.348 0.824 0.934 1.625 1.762 2.399 0.453 0.425 1.187 1.066 2.199 1.922 0.586 0.503 1.336 1.359 2.242 2.558 0.891 1.18 1.606 2.016 2.141 2.5-0.895-0.769-2.66-1.668-5.301-2.699-2.613-1.016-4.469-2.016-5.562-3-2.481-2.563-4.371-4.453-5.68-5.68-2.398-2.269-3.52-2.707-3.359-1.32 0.668 2.183 2.054 4.398 4.16 6.641 1.172 1.226 3.32 3.132 6.441 5.718 2.906 2.426 5 4.36 6.278 5.801 2 2.266 3.242 4.547 3.722 6.84-4.801 0.828-8.707 0.918-11.722 0.277-1.758-0.371-4.774-2.293-9.04-5.758-3.972-3.281-8.078-7.121-12.32-11.519-4.398-4.563-7.758-8.52-10.078-11.883-2.586-3.785-3.336-6.105-2.242-6.957-0.16-0.746-0.547-1.801-1.16-3.16-0.664-1.414-1.094-2.453-1.278-3.121 1.278-0.028 3.039 0.746 5.278 2.32 2.136 1.492 3.84 2.121 5.121 1.879-2.535-3.785-5.039-6.773-7.52-8.961-0.48-0.426-2.281-1.504-5.398-3.238-3.227-1.813-4.84-2.559-4.84-2.238 0.023 0.292-0.027 0.679-0.16 1.16-0.16 0.531-0.242 0.84-0.242 0.918-3.653-4.16-6.625-8.84-8.918-14.039-2.243-5.121-3.735-10.497-4.481-16.121-0.133-1.067-0.387-3.774-0.762-8.122-0.64-3.757-1.894-5.586-3.757-5.48-1.469 6.215-2.227 9.496-2.282 9.844-0.64 3.57-0.8 6.918-0.48 10.039 0.426 4.16 0.508 7.531 0.238 10.117-0.344 3.441-1.316 6.629-2.918 9.562-1.094 1.758-1.894 3.106-2.398 4.04-0.856 1.624-1.27 3.093-1.242 4.398 0.027 0.961 0.507 2.414 1.441 4.363 0.934 1.891 1.387 3.344 1.359 4.36-0.027 1.332-0.453 2.597-1.281 3.8-1.117 1.411-2 2.559-2.64 3.438-1.465 2.055-2.559 4.055-3.278 6-0.773 2.105-1.187 4.348-1.242 6.723 0 0.238 0.133 1.371 0.402 3.398 0.184 1.465 0.118 2.559-0.203 3.281-0.316 0.719-0.773 1.211-1.359 1.481-0.692 0.316-1.16 0.636-1.399 0.957-1.066 1.386-1.718 2.906-1.961 4.562-0.132 2.024-0.371 3.758-0.718 5.199-3.946-1.121-6.028-4.933-6.242-11.441 0-0.16 0.042-2.84 0.121-8.039 0.054-3.094-0.145-5.375-0.598-6.84-0.59 0.508-1.043 0.918-1.363 1.238-0.614 0.563-1.051 1.067-1.321 1.52-0.105-1.41 0.137-3.051 0.723-4.918 0.348-1.039 0.895-2.602 1.641-4.68 1.093-6.988 1-9.812-0.282-8.48-2.64 2.695-4.668 5.254-6.082 7.68-0.636 1.093-1.679 2.624-3.117 4.601-1.496 2.051-2.547 3.598-3.16 4.641-0.723 1.226-1.453 3.039-2.199 5.437-0.828 2.586-1.508 4.414-2.043 5.481-0.426 0.828-1.32 2.039-2.68 3.64-1.277 1.492-2.117 2.719-2.519 3.68-0.426 0.984-0.532 2.414-0.321 4.281 0.215 1.946 0.176 3.344-0.121 4.199-0.746 2.161-3.051 4.36-6.918 6.598-4.48 2.563-7.199 4.469-8.16 5.723-0.559-0.586-0.894-1.453-1-2.602-0.055-0.664-0.121-1.652-0.199-2.961-0.106-0.718-0.602-2.105-1.481-4.16-0.8-1.84-1.187-3.199-1.16-4.078 0.055-2.027 1.028-4.52 2.918-7.48 2.43-3.84 3.817-6.215 4.16-7.122 0.696-1.73 1.934-4.718 3.723-8.957 0.828-2.668-0.496-2.082-3.961 1.758-2.105 2.321-5.215 5.801-9.32 10.442-4.133 4.664-7.227 8.132-9.281 10.398-1.094 1.199-2.321 3-3.68 5.402-1.465 2.637-2.586 4.438-3.36 5.399-0.906 1.121-2.16 1.68-3.757 1.68-1.95-0.215-3.457-0.282-4.524-0.2-1.57 0.106-2.691 0.532-3.359 1.282-0.692 1.066-1.453 1.933-2.278 2.597-0.562 0.453-1.546 0.735-2.96 0.84-1.68 0.082-2.922 0.16-3.719 0.242-2.961 0.344-4.121 1.84-3.481 4.481 0.293 1.25 1.774 2.636 4.438 4.156 1.414 0.801 3.32 1.883 5.722 3.242 1.704 1.305 3.118 2.215 4.239 2.719 1.519 0.668 3.16 0.933 4.922 0.801 3.039-0.239 6.398-0.188 10.078 0.16 1.254 0.133 4.613 0.558 10.082 1.281 13.383 1.707 27.758 2.863 43.117 3.481 12.934 0.503 27.348 0.636 43.242 0.398 16.746-0.293 30.973-1.055 42.68-2.281 15.519-1.625 29.492-4.305 41.918-8.039 7.949-2.348 16.976-5.946 27.082-10.801 0.398-0.184 2.519-1.348 6.359-3.481 2.613-1.437 4.785-2.425 6.52-2.957l0.199-0.043c0.641-0.183 2.066-0.32 4.281-0.398 1.918-0.266 2.961-0.988 3.121-2.16 0.051-0.348-0.121-0.696-0.519-1.039-0.508-0.403-0.867-0.707-1.082-0.922l-0.559 0.48c-0.055-0.132-0.226-0.332-0.519-0.597-0.27-0.27-0.43-0.453-0.481-0.563 0 0.106-0.043 0.281-0.121 0.52-0.078 0.242-0.121 0.425-0.121 0.562-0.852-0.32-1.453-0.586-1.801-0.801-0.023 0.028-0.023 0.079 0 0.161 0.02 0.058 0.043 0.097 0.063 0.121-0.383-0.172-1.11-0.575-2.18-1.203 0.32 0.64 0.746 1.23 1.277 1.761-0.316-0.187-0.89-0.586-1.718-1.199-0.719-0.508-1.305-0.855-1.758-1.043 0.16 0.215 0.293 0.524 0.398 0.922-1.387 0.16-2.64 0.051-3.761-0.32-0.454-0.133-1.614-0.668-3.477-1.602-4.055-2.023-6.242-3.117-6.563-3.277z" inkscape:connector-curvature="0"/>
                      </g>
                    </g>
                  </g>
                </g>
              </g>
            </g>
          </g>
        </g>
      </g>
    </mask>
    <clipPath id="clipPath268">
      <path id="path270" d="m23 3h259v134h-259v-134z" inkscape:connector-curvature="0"/>
    </clipPath>
    <clipPath id="clipPath272">
      <path id="path274" d="m23 3h259v134h-259v-134z" inkscape:connector-curvature="0"/>
    </clipPath>
    <clipPath id="clipPath286">
      <path id="path288" d="m21 0h259v114h-259v-114z" inkscape:connector-curvature="0"/>
    </clipPath>
    <clipPath id="clipPath290">
      <path id="path292" d="m21 0h259v114h-259v-114z" inkscape:connector-curvature="0"/>
    </clipPath>
    <mask id="mask294">
      <g id="g296">
        <g id="g298" clip-path="url(#clipPath286)">
          <g id="g300">
            <g id="g304">
              <g id="g306" clip-path="url(#clipPath290)">
                <g id="g308">
                  <path id="path310" style="fill-rule:evenodd;fill:#474d41" d="m264.69 95.289c-0.825-1.121-1.321-2.121-1.481-3 0.961 0.051 2.242 0.641 3.844 1.758 0.824 0.586 1.984 1.519 3.476 2.801 0.614 0.507 1.547 1.402 2.801 2.679 1.199 1.149 2.133 2 2.801 2.563 0.426 0.344 0.973 0.637 1.641 0.879 1.093 0.426 1.679 0.652 1.757 0.679 0.321-1.039-0.492-2.679-2.437-4.921l-4.199-4.2c-1.657-1.679-3.774-3.32-6.364-4.918-1.039-0.64-3.386-1.961-7.039-3.961-2.293-1.281-5.625-2.308-10-3.082-5.386-0.933-8.84-1.652-10.359-2.16-1.067-0.344-2.375-0.945-3.922-1.797-1.863-1.015-3.145-1.668-3.84-1.961-1.359-0.613-3.133-1.586-5.316-2.921-2.453-1.52-4.188-2.532-5.203-3.039-3.465-1.758-7.653-3.321-12.559-4.68-5.066-0.852-9.016-1.574-11.84-2.16-5.199-1.067-8.719-2.758-10.558-5.078l-0.442-0.602c-0.773-1.199-1.625-3.094-2.558-5.68-0.934-2.695-1.762-4.613-2.481-5.761-1.414-2.293-3.293-4.559-5.64-6.797-1.735-1.68-3.989-3.575-6.762-5.68-7.653-5.867-13.371-11.215-17.16-16.043-1.731-2.184-2.891-3.707-3.481-4.559-1.199-1.812-2.012-3.519-2.437-5.121-0.106-0.398-0.282-1.574-0.52-3.519-0.187-1.414-0.508-2.535-0.961-3.36-1.707-3.121-4.105-4.347-7.199-3.679-2.855 0.613-5.016 2.371-6.48 5.281-1.469 2.934-3.586 6.52-6.36 10.758-4.187 6.347-6.48 9.84-6.883 10.48-1.757 2.828-4.211 5.293-7.359 7.399-0.934 0.64-4 2.363-9.199 5.16-3.094 1.68-5.735 3.922-7.918 6.723-1.176 1.546-3 4.492-5.481 8.839-1.066 1.918-2.84 3.973-5.32 6.161-3.227 2.906-5.199 4.769-5.922 5.597-1.785 2.321-3.144 4.039-4.078 5.16-1.629 1.922-3.242 3.348-4.84 4.282-1.519 0.906-3.387 2.238-5.601 4-2.934 2.32-4.758 3.734-5.481 4.238-0.746 0.535-1.691 1.015-2.84 1.441-1.304 0.453-2.304 0.828-3 1.121-1.547 0.641-2.879 1.641-4 3-1.199 1.653-2.199 2.946-3 3.879-0.8 0.907-1.918 1.746-3.359 2.52-1.707 0.828-2.973 1.465-3.801 1.922-0.879 0.453-2.066 1.293-3.558 2.519-1.52 1.227-2.696 2.067-3.52 2.52-1.789 0.984-3.32 2.785-4.602 5.398-0.984 2-1.757 4.348-2.32 7.039 1.227-0.613 2.414-2.117 3.563-4.519 1.41-2.907 2.398-4.664 2.957-5.278 1.148-1.281 2.695-2.242 4.64-2.882 2.668-0.825 4.629-1.293 5.879-1.399 0.617-0.055 1.668-0.078 3.16-0.078 1.282-0.082 2.243-0.402 2.883-0.961 0.586-0.535 1.278-1.574 2.078-3.121 0.852-1.652 1.563-2.773 2.121-3.359 0.453-0.508 1.36-1.387 2.719-2.641 1.199-1.121 2.082-2.027 2.641-2.719 0.535-0.668 1.199-1.535 2-2.601 0.719-0.801 1.629-1.426 2.719-1.879 2.48-1.039 4.601-2.133 6.363-3.281 2.637-1.708 4.547-3.133 5.719-4.282 0.691-0.718 1.878-1.558 3.558-2.519 1.734-0.985 2.922-1.785 3.563-2.399 0.449-0.426 1.25-1.453 2.398-3.082 0.852-1.199 1.828-2.105 2.918-2.718 1.707-0.934 3.109-1.825 4.203-2.68 0.934-0.719 1.692-1.559 2.278-2.52 0.347-0.586 0.906-1.535 1.679-2.84 0.961 0.559 1.629 1.493 2 2.801 0.348 1.254 0.348 2.426 0 3.52-0.769 1.359-1.293 2.386-1.558 3.078-0.508 1.281 0.027 1.453 1.601 0.519 0.32-0.211 0.68-0.636 1.078-1.277 0.453-0.723 0.785-1.176 1-1.359 0.266-0.27 0.719-0.59 1.36-0.961 0.64-0.403 1.093-0.719 1.359-0.961 0.563-0.535 1.137-1.348 1.723-2.442 0.718-1.382 1.199-2.25 1.437-2.597 0.75-1.067 2.242-2.293 4.481-3.68 2.109-1.309 3.507-2.601 4.203-3.883 0.344-0.613 0.664-1.476 0.957-2.597 0.347-1.254 0.629-2.121 0.84-2.602 0.347-0.852 0.933-1.641 1.761-2.359 0.453-0.399 1.282-0.985 2.481-1.758 0.16-0.11 0.933-0.723 2.32-1.84 1.25-0.988 1.945-1.496 2.078-1.523 0.481-0.079 0.746 0.507 0.801 1.761 0 1.465 0.012 2.426 0.039 2.879 1.016-1.387 2.027-3.051 3.039-5 0.59-1.117 1.442-2.879 2.563-5.277 1.172-2.535 1.984-5.867 2.437-10 0.723-6.457 1.121-9.883 1.203-10.281 0.321-1.813 0.813-3.336 1.481-4.559 0.984-1.867 2.199-2.617 3.637-2.242 1.761 0.453 3.109 2.426 4.042 5.922 0.774 3.918 1.344 6.425 1.719 7.519 0.293 0.801 0.918 2.094 1.879 3.879 0.879 1.652 1.469 2.973 1.762 3.961 0.398 1.785 0.707 3.094 0.918 3.918 0.347 1.496 0.84 2.773 1.48 3.84 1.094 1.84 1.989 3.203 2.68 4.082 1.441 1.84 2.629 2.652 3.562 2.437-0.082-0.453-0.386-1.476-0.921-3.078-0.321-1.492-0.188-2.441 0.398-2.84 0.43-0.293 1.27-0.214 2.523 0.239 0.024 0 0.879 0.363 2.559 1.082 1.305 0.531 2.52 1.465 3.641 2.801 0.64 0.769 1.597 2.011 2.879 3.718 2.32 2.641 4.16 5.614 5.519 8.918 0.563 1.387 1.426 3.242 2.602 5.563 1.359 2.691 2.265 4.547 2.718 5.558 1.176 2.614 3.426 4.907 6.762 6.879 0.934 0.563 2.36 1.348 4.278 2.364 1.707 0.957 3.082 1.839 4.121 2.636 1.972 1.547 2.988 2.348 3.039 2.403 1.226 0.933 2.308 1.652 3.242 2.16-0.133-0.453-0.629-1.149-1.481-2.082-0.746-0.797-1.121-1.532-1.121-2.199 0.106-0.028 0.746-0.372 1.922-1.04 0.641-0.375 1.399-0.492 2.278-0.359 0.585 0.078 1.468 0.344 2.64 0.801 1.121 0.449 1.988 0.703 2.602 0.758-0.188-0.532-0.336-0.879-0.442-1.039 1.762-0.641 3.801-0.614 6.121 0.078 0.879 0.269 2.786 1.066 5.719 2.402 0.723 0.32 1.789 0.652 3.199 1 1.524 0.371 2.602 0.691 3.243 0.961 0.8 0.316 1.574 0.812 2.32 1.477 0.453 0.402 1.133 1.054 2.039 1.961 1.973 1.785 3.012 2.718 3.121 2.8 1.203 1.047 2.289 1.899 3.258 2.559-0.574-0.418-1.301-1.34-2.18-2.758-0.933-1.441-1.465-2.519-1.598-3.242 0.797 0.109 1.665 0.469 2.598 1.082 0.535 0.32 1.309 0.851 2.32 1.598 0.481 0.296 1.215 0.64 2.2 1.043 1.015 0.398 1.75 0.746 2.203 1.039 0.586 0.375 1.383 0.906 2.398 1.597 0.879 0.59 1.735 1.028 2.559 1.321 1.359 0.507 2.109 0.789 2.242 0.839 0.773 0.348 1.438 0.762 2 1.243 0.32 0.238 0.879 0.879 1.68 1.918 0.773 0.828 1.386 1.027 1.84 0.601 1.011 0.641 2.546 1.879 4.597 3.719 1.895 1.68 3.457 2.867 4.684 3.562 2.746 1.598 4.945 2.653 6.597 3.161 1.68 0.503 2.336 0.277 1.961-0.68-0.214-0.563-0.839-1.563-1.879-3-0.906-1.227-1.589-2.16-2.042-2.801z" inkscape:connector-curvature="0"/>
                </g>
              </g>
            </g>
          </g>
        </g>
      </g>
    </mask>
    <clipPath id="clipPath312">
      <path id="path314" d="m21 0h259v114h-259v-114z" inkscape:connector-curvature="0"/>
    </clipPath>
    <clipPath id="clipPath316">
      <path id="path318" d="m21 0h259v114h-259v-114z" inkscape:connector-curvature="0"/>
    </clipPath>
    <linearGradient id="linearGradient414" y2="-190.13" gradientUnits="userSpaceOnUse" x2="296.45" gradientTransform="matrix(-.016 -.79984 -.79984 .016 .0091495 295.13)" y1="-190.13" x1="157.45">
      <stop id="stop416" style="stop-color:#c4ead7" offset="0"/>
      <stop id="stop418" style="stop-color:#bddac3" offset="1"/>
    </linearGradient>
  </defs>
  <g id="g10" transform="matrix(1.25 0 0 -1.25 0 368.9)">
    <g id="g12">
      <g id="g14">
        <g id="g16">
          <g id="g22">
            <path id="path34" style="fill-rule:evenodd;fill:url(#linearGradient24)" d="m133.57 163.77c-2.828-0.16-7.242-0.679-13.242-1.558-5.734-0.828-10.144-1.309-13.238-1.442-1.387-0.05-6.75-0.601-16.082-1.64-6.559-0.692-11.918-0.785-16.078-0.278-6.586 0.852-13.653 0.094-21.2-2.281-2.054-0.668-4.16-1.453-6.32-2.359-3.414-1.629-6.015-2.84-7.801-3.641-3.199-1.441-5.894-2.359-8.082-2.762 0.801 1.309 1.961 2.641 3.481 4 0.746 0.696 2.133 1.829 4.16 3.403 1.066 0.824 2.199 1.945 3.402 3.359 1.785 2.055 2.813 3.227 3.078 3.52 1.282 1.281 2.293 1.945 3.04 2 0.535 0.05 1.746-0.028 3.64-0.239 2.828-0.054 5.547 0.957 8.16 3.039 1.922 1.52 4.094 3.946 6.52 7.278 2.613 3.844 4.601 6.617 5.961 8.32 2.32 2.961 4.508 4.988 6.558 6.082 2.723 1.442 5.43 1.238 8.121-0.601 1.653-1.145 3.922-3.532 6.801-7.161 2.961-3.73 5.199-6.144 6.719-7.238 2.586-1.894 5.16-2.148 7.723-0.762 1.171 0.641 2.476 1.375 3.918 2.204 1.148 0.343 2.64 0.039 4.48-0.922 0.641-0.348 2.266-1.68 4.879-4 2.055-1.813 3.828-2.774 5.32-2.879 0.696-0.055 1.387 0.172 2.082 0.679 0.77 0.532 1.387 0.825 1.84 0.879 0.906 0.106 1.598 0.106 2.078 0 0.321-0.078 0.989-0.254 2-0.519 1.176-0.238 3.133-0.625 5.879-1.16 2.403-0.559 4.242-1.227 5.524-2-1.496-0.719-3.657-1.121-6.481-1.2-3.203 0-5.48-0.039-6.84-0.121z" inkscape:connector-curvature="0"/>
          </g>
        </g>
      </g>
      <g id="g36">
        <g id="g38">
          <g id="g44">
            <path id="path56" style="fill-rule:evenodd;fill:url(#linearGradient46)" d="m124.65 255.33-0.281-1.879 0.801 0.641-0.52 1.238zm-7.441 2.723-0.238 0.839-0.281-0.441c-0.133-0.664-0.2-1.066-0.2-1.199l-0.32 0.441c-1.094-1.551-2.387-3.148-3.879-4.801-2.238-2.668-3.68-4.894-4.32-6.679-1.039-2.856-0.492-5.176 1.64-6.961-0.132 1.441 0.895 3.293 3.079 5.558 1.335 1.36 3.121 2.801 5.363 4.321 1.25 0.855 3.011 2.027 5.277 3.519l-0.437 4.563c-0.082-0.321-0.336-0.906-0.762-1.762-0.348 0.906-0.414 1.785-0.199 2.641-0.188-0.586-0.36-1.559-0.52-2.922 0.051 1.387-0.137 2.617-0.562 3.683-0.399-1.761-0.664-3.269-0.797-4.523-0.297 1.336-0.547 2.363-0.762 3.082-0.348 1.254-0.812 2.16-1.398 2.719-0.028-0.184-0.149-0.52-0.364-1-0.183-0.453-0.293-0.813-0.32-1.078zm-4.219 5.558c0.024-0.586-0.183-1.281-0.621-2.078-0.426-0.773-0.89-1.402-1.398-1.883 0 0.856 0.027 1.496 0.082 1.922-0.16-0.426-0.481-1.055-0.961-1.879 0.133 0.637 0.199 1.438 0.199 2.399-1.148-0.508-2.293-1.586-3.441-3.239-0.879-1.601-1.813-3.121-2.797-4.562-1.442-2.133-2.227-4.238-2.363-6.32-0.133-1.758 0.187-3.414 0.96-4.957 0.055 1.066 0.254 2.117 0.602 3.156 0.773 2.054 2.652 4.269 5.641 6.64 3.543 2.801 5.746 4.789 6.597 5.961-0.504 0.961-0.8 1.934-0.879 2.922-0.187-0.883-0.601-2.203-1.242-3.961 0.055 0.774 0.016 1.785-0.117 3.039-0.141 1.45-0.227 2.399-0.262 2.84zm46.02-14.84c-0.266-1.226-0.492-2.105-0.68-2.64 0.106 1.308-0.039 2.906-0.441 4.801l-0.399-0.481c0.133-3.812 0.012-6.945-0.359-9.398-0.289-1.762-1.008-4.59-2.16-8.481 0.136 0.336 0.523 0.856 1.16 1.559 0.371 0.426 0.867 0.972 1.48 1.64 0.321 0.453 1.067 1.387 2.239 2.801 1.015 1.199 1.734 2.16 2.16 2.879 1.601 2.668 2.734 5.563 3.402 8.68l-0.441-0.801c-0.235 0.894-0.203 1.801 0.101 2.723-0.367-1.024-0.761-1.864-1.183-2.52-0.239 1.359-0.305 2.531-0.199 3.52-0.239-0.801-0.68-1.746-1.321-2.84-0.746-1.227-1.293-2.149-1.637-2.762-0.214 0.879-0.187 1.801 0.079 2.762-0.133-0.321-0.387-0.828-0.758-1.52-0.375 0.77-0.496 1.637-0.363 2.598-0.211-0.531-0.438-1.371-0.68-2.52zm-3.719-0.16c-0.25 0.5-0.418 0.875-0.5 1.121 0.172-0.562 0.231-1.363 0.18-2.402-0.321 1.094-0.668 1.988-1.039 2.684-0.426-1.309-0.68-2.348-0.762-3.122l-0.316 1.161-0.641-2.84c0.078 0.824 0.078 1.664 0 2.519-0.082 0.532-0.149 0.852-0.203 0.961v-0.043c-0.371-1.093-0.746-2.597-1.117-4.519-0.426-2.426-0.719-3.946-0.883-4.559 0.453 2.027 0.574 4.508 0.363 7.442-0.348-0.536-0.562-1.043-0.641-1.524l0.04 1.16c-0.668-0.636-1.172-1.465-1.52-2.48-0.105 0.668-0.148 1.176-0.121 1.523-0.637-1.148-1.106-2.281-1.399-3.402-0.078 0.508-0.132 0.894-0.16 1.16-0.078 0.453-0.093 0.867-0.039 1.242-0.562-0.668-1.054-1.48-1.48-2.441-0.426-0.906-0.68-1.707-0.762-2.399-0.211 0.825-0.348 1.946-0.398 3.36-0.641-2.426-0.989-4.52-1.039-6.281-0.543 2.503-0.797 4.324-0.762 5.46-0.086-1.472-0.258-3.652-0.52-6.539-0.215-2.668-0.265-4.882-0.16-6.64-0.293 1.492-0.558 3.801-0.801 6.918-0.211 3.093-0.48 5.414-0.8 6.961 0.136-0.746 0.16-1.719 0.082-2.922-0.028-0.692-0.094-1.692-0.2-3-1.039 4.082-1.535 7.008-1.48 8.781l-0.242-4.258c-0.852 2.106-1.36 4.278-1.52 6.52l-0.238-0.403c-0.133 0.668-0.188 1.204-0.16 1.602-0.746-1.227-1.242-2.574-1.481-4.039-0.32 0.984-0.492 1.863-0.519 2.641-0.641-1.204-1.039-2.778-1.199-4.723-0.11-1.121-0.188-2.774-0.243-4.961-0.293 1.414-0.504 3.269-0.64 5.562-0.184 2.614-0.211 5.122-0.078 7.52-0.321-0.055-0.641-1.398-0.961-4.039-0.266-2.215-0.399-3.856-0.399-4.922-0.242 1.84-0.426 3.242-0.562 4.199-0.211 1.68-0.477 3.067-0.797 4.16 0-0.558-0.055-1.371-0.16-2.437-0.477 1.742-1.043 3.094-1.703 4.059 0.269-0.415 0.156-1.262-0.34-2.54-0.559 0.665-1 1.571-1.317 2.719-0.535-0.64-1.093-1.226-1.683-1.758l-0.16-0.761-0.118 0.519c-0.695-0.613-1.507-1.265-2.441-1.961-3.598-2.531-5.824-4.531-6.68-6-1.332-2.32-0.441-4.426 2.68-6.32 4.027-0.824 6.707-1.543 8.039-2.16 2.668-1.278 4.32-3.332 4.961-6.156 0.453-2 0.535-5.254 0.242-9.762-0.269-4.266-0.094-7.453 0.52-9.559 1.199-4.136 4.414-5.469 9.64-4 1.758 0.504 3.864 1.36 6.317 2.559 1.336 0.668 3.015 1.535 5.043 2.601 2.48 1.2 4.785 2.25 6.918 3.161-2.16 0.265-3.985 1.011-5.481 2.238-1.652 1.332-2.664 3.039-3.039 5.121-0.535 3.066 0.051 6.863 1.758 11.398 2.109 5.602 3.27 9.321 3.48 11.161 0.293 2.746 0.321 4.945 0.082 6.601l-0.441-0.922zm44.68-0.918c-0.399 0.547-0.68 0.981-0.84 1.297 0.137-0.297 0.391-1.023 0.758-2.18l-0.68 0.801c0.215-0.531 0.309-1.215 0.281-2.039 0-0.48-0.039-1.187-0.121-2.121-0.371 0.856-0.57 1.652-0.597 2.402-0.133-1.175-0.536-2.722-1.2-4.64-0.773-2.16-1.254-3.68-1.441-4.563 0.027 0.696 0.226 1.934 0.601 3.723 0.344 1.547 0.465 2.812 0.36 3.797-0.188-1.09-0.59-2.156-1.203-3.199l-0.078 3.082c-0.321-1.094-0.989-2.082-2-2.961-0.258 0.308-0.278 0.668-0.059 1.078-1.082-1.922-1.742-3.203-1.98-3.84-0.055 1.281 0.199 2.43 0.757 3.441-0.906-1.121-1.558-2.011-1.961-2.679-0.664-1.094-1.093-2.149-1.277-3.16-0.562 1.546-0.762 2.828-0.601 3.839-0.586-2.8-0.918-4.347-1-4.64 0.027 0.586-0.055 1.293-0.239 2.121-0.269 1.226-0.414 1.933-0.441 2.121 0-0.883-0.309-2.188-0.922-3.922-0.637-1.812-0.984-3.879-1.039-6.199-0.238 3.359-0.106 6.055 0.402 8.078-0.293-0.664-0.707-1.863-1.242-3.598 0.055 1.332 0.094 2.332 0.121 3 0.078 1.172 0.211 2.145 0.399 2.918-0.188-0.398-0.52-1-1-1.797 0.027 0.934 0.066 1.637 0.121 2.118-0.348-0.985-1.11-2.84-2.282-5.559 0.055 0.852 0.067 1.945 0.039 3.281-0.05 1.598-0.078 2.664-0.078 3.199-0.562-0.96-0.894-1.812-1-2.562-0.242 0.457-0.441 0.816-0.601 1.082-0.238 0.453-0.399 0.812-0.481 1.078-0.187-0.453-0.347-1.051-0.48-1.797-0.078-0.402-0.188-1.015-0.32-1.84-0.161 0.504-0.36 1.426-0.598 2.758-0.215 1.281-0.442 2.254-0.68 2.922-0.055-0.453-0.269-1.176-0.64-2.16-0.215 0.586-0.469 1.625-0.762 3.117-0.078-0.371-0.254-0.973-0.52-1.797-0.105 0.293-0.293 0.719-0.558 1.278-0.293 0.562-0.481 0.961-0.559 1.199-1.23-3.145-1.871-6.004-1.922-8.578-0.019 3.394-0.351 6.242-1 8.539-0.16-0.532-0.293-1.293-0.398-2.278-0.11-1.066-0.227-1.828-0.363-2.281-0.426 3.254-0.719 5.68-0.879 7.281-0.293-1.363-0.454-2.203-0.481-2.523-0.078 0.32-0.215 1.109-0.398 2.363-0.133 0.957-0.321 1.703-0.559 2.239-0.055-1.145-0.109-1.918-0.16-2.321-0.109-0.851-0.309-1.547-0.602-2.078-0.027 0.852-0.148 1.852-0.359 3-0.293 1.305-0.508 2.293-0.641 2.957-0.425-2.957-1.308-5.863-2.64-8.719-1.305-2.8-3.653-6.918-7.039-12.359-2.293-4.453-2.375-7.602-0.242-9.441 2.132-1.84 6.093-3.012 11.882-3.52 10.211 2.906 19.586 2.922 28.118 0.039 7.519-2.531 14.121-8.051 19.8-16.558 5.067-7.602 8.293-15.735 9.68-24.399 0.773-4.773 1.187-11.027 1.242-18.762 0.078-9.707 0.227-15.945 0.438-18.718-9.465 3.386-20.45 5.293-32.957 5.718-3.121 0.11-14.27-0.093-33.442-0.601 1.227 2.215 3.016 5.054 5.36 8.523 3.652 5.41 5.613 8.332 5.879 8.758 4.64 7.176 7.484 13.348 8.523 18.52 2.105 10.613-0.801 16.453-8.723 17.519-4.183 0.535-11.773-0.664-22.757-3.598-7.2-1.949-12.376-2.8-15.52-2.562-5.336 0.402-9.293 2.508-11.879 6.32-2.562 3.817-3.375 8.735-2.441 14.762 0.718 3.281 1.199 5.852 1.441 7.719 0.426 3.359 0.145 5.816-0.84 7.359-0.722 1.149-1.883 2.109-3.48 2.883-0.723 0.32-2.254 0.879-4.602 1.68-3.492 1.011-6.465 2.707-8.918 5.078-2.64 2.535-4.043 5.347-4.203 8.441-0.211 3.465 1.176 7.067 4.16 10.801 1.547 1.973 2.723 3.691 3.52 5.16l0.121 0.68-2.399-2.883c0.051 0.082 0.293 0.602 0.719 1.562-0.879-1.121-1.558-1.949-2.039-2.48 0.078 0.852 0.16 1.48 0.238 1.879-1.546-1.918-2.918-4.438-4.117-7.559 0 0.641 0.078 1.586 0.239 2.84 0.187 1.254 0.265 2.16 0.238 2.719-0.934-1.52-1.477-3.828-1.637-6.918-0.187-3.867-0.496-6.547-0.922-8.043 0.215 1.707 0.266 3.894 0.16 6.562-0.187 3.04-0.32 5.25-0.398 6.641-0.59-1.066-1.016-2.762-1.281-5.082-0.16-1.305-0.321-3.121-0.481-5.437 0.133 2.613 0.172 4.652 0.121 6.117-0.133 2.453-0.547 4.386-1.242 5.801-0.398-0.852-0.785-2.239-1.16-4.161-0.078 0.961-0.145 1.536-0.199 1.719-0.106 0.59-0.321 1.109-0.641 1.563 0.027-0.055-0.051-0.188-0.238-0.403-0.16-0.211-0.281-0.343-0.36-0.398-0.32 0.64-0.628 0.906-0.921 0.801-0.372-0.243-0.707-0.348-1-0.321-0.133-0.508-0.415-1.242-0.84-2.199-0.078 1.414-0.121 2.133-0.121 2.16-0.133-0.508-0.371-1.281-0.719-2.32-0.266-0.934-0.387-1.746-0.359-2.441l-0.2 2.921c-0.32-0.453-0.613-1.082-0.883-1.882-0.132-0.454-0.316-1.079-0.558-1.879 0 1.254 0.027 2.187 0.082 2.8-0.801-1.789-1.281-3.386-1.441-4.8 0 2.425 0.011 3.867 0.039 4.32-0.692-2.266-1.094-5.348-1.2-9.242-0.187-5.703-0.304-8.863-0.359-9.477-0.215 1.785-0.32 4.77-0.32 8.957 0 3.922-0.16 6.907-0.481 8.961-0.719-1.441-1.133-3.746-1.238-6.918-0.297 1.145-0.441 2.492-0.441 4.039-0.028 0.492 0.007 1.797 0.101 3.918-0.059-0.765-0.305-2.402-0.742-4.918-0.371-2.265-0.481-4.093-0.32-5.48-0.879 5.172-1.145 9.187-0.801 12.039-0.133-0.399-0.266-1-0.399-1.801-0.132-0.851-0.254-1.453-0.359-1.797-0.188 0.934-0.336 2.426-0.441 4.477l-0.239-0.918c-0.375 0.668-0.586 1.215-0.64 1.64l-0.719-0.722c-0.32 0.508-0.524 0.922-0.602 1.242v-1.68c-0.558 0.504-1.027 1.188-1.398 2.039-0.375 0.856-0.59 1.668-0.641 2.442 0-0.293-0.039-0.735-0.121-1.321-0.558 0.801-1.055 2.106-1.48 3.918 0-0.398-0.039-1.011-0.121-1.839-0.266 0.402-0.465 0.921-0.598 1.562-0.133 0.746-0.242 1.293-0.32 1.637l-0.399-1.156c-0.269 0.878-0.402 1.878-0.402 3-0.027-0.481-0.051-1.243-0.078-2.282-0.055-0.879-0.16-1.586-0.321-2.121-0.64 1.067-0.933 2.481-0.882 4.242 0.187 2.024 0.32 3.493 0.402 4.399-0.242-0.641-0.453-1.535-0.641-2.68-0.215-1.336-0.386-2.254-0.519-2.762-0.348 2.454-0.266 5 0.238 7.641 0.215 0.961 0.453 1.84 0.723 2.641 1.117 3.011 3.426 6.011 6.918 9 3.039 2.613 6.254 4.668 9.64 6.16 6.774 2.961 14.84 4.84 24.2 5.64 5.152 0.454 10.289 0.239 15.41-0.64 4.613-0.801 8.972-2.094 13.078-3.879 4.347-1.895 8.121-4.426 11.32-7.602 2-2 3.586-4.027 4.758-6.078 1.574 0.719 3.07 1.211 4.48 1.477 3.497 0.668 7.454 0.601 11.883-0.199 3.84-0.719 7.641-1.907 11.399-3.559 4.32-1.895 7.922-4.492 10.8-7.801 1.442-1.652 2.454-3.121 3.04-4.398 3.171-5.067 4.535-9.906 4.082-14.52h-0.008z" inkscape:connector-curvature="0"/>
          </g>
        </g>
      </g>
      <g id="g58">
        <g id="g60">
          <g id="g66">
            <path id="path80" style="fill-rule:evenodd;fill:url(#linearGradient68)" d="m264.25 98.252c-2.961-0.883-5.734-2.481-8.32-4.801-3.172-2.906-4.84-4.426-5-4.559-2.028-1.683-3.934-2.882-5.719-3.601-3.68-1.492-8.375-3.801-14.082-6.918-7.067-3.895-11.758-6.402-14.078-7.52-2.293-1.121-5.375-1.816-9.242-2.082-3.149-0.214-6.332-0.148-9.559 0.2-2.801 0.269-4.215 0.402-4.242 0.402-1.145-0.027-2.465-0.414-3.957-1.16-1.895-0.989-3.883-2.36-5.961-4.121-2.16-1.813-3.828-3.559-5-5.239-0.883-1.281-2.121-3.496-3.719-6.64-1.496-2.934-2.801-5.149-3.922-6.641-1.304-1.734-3.32-4.586-6.039-8.558-2.586-3.309-5.176-5.536-7.762-6.684-0.453-0.211-2.519-0.68-6.199-1.398-2.051-0.399-3.613-1.575-4.679-3.52-0.508-0.906-1.426-3.613-2.762-8.121-1.492-5.117-2.692-8.785-3.598-11-3.336-8.266-6.48-8.387-9.441-0.359-0.321 0.855-1.239 5.16-2.758 12.921-1.149 5.786-2.707 9.731-4.68 11.84-0.801 0.852-2.347 1.891-4.64 3.117-2.106 1.149-3.657 2.36-4.641 3.641-2.027 2.934-3.535 5.082-4.52 6.441-1.734 2.399-3.546 4.282-5.441 5.641-2.133 1.52-3.586 2.664-4.359 3.438-1.2 1.253-2.2 2.882-3 4.882-0.852-0.961-1.735-2.214-2.641-3.761-0.746-1.227-1.293-1.957-1.641-2.2-0.933-0.668-2.957 0.668-6.078 4-4.242 4.907-7.508 8.614-9.8 11.122-4.133 4.48-7.879 7.613-11.239 9.398-4.402 2.16-7.574 3.828-9.523 5-3.278 2-6 4.414-8.156 7.242-1.336 2-2.348 3.481-3.043 4.438-1.227 1.679-2.547 2.828-3.957 3.441-0.774 0.32-2.094 0.547-3.961 0.68-1.762 0.133-3.082 0.441-3.961 0.922-1.492 0.824-2.813 2.183-3.961 4.078-0.504 0.855-1.348 2.574-2.52 5.16-2.398 4.187-4.254 7.652-5.558 10.398-2.403 5.121-2.934 8.641-1.602 10.563 2.027 2.851 7.293 4.332 15.801 4.437 4.558 0.055 10.348-0.199 17.359-0.757 2.828-0.082 7.039-0.227 12.641-0.442 4.906-0.133 9.121-0.133 12.64 0 2.106 0.082 5.641 0.52 10.598 1.32 4.481 0.719 8.016 1.055 10.602 1 3.226-0.05 8.054-0.253 14.48-0.597 5.574-0.055 10.266 0.664 14.078 2.16 9.121 3.543 19.535 5.012 31.242 4.398 4.051-0.214 8.625-1.347 13.719-3.398 2.852-1.176 7.266-2.977 13.239-5.402l0.882-0.282c5.305-1.73 12.664-2.918 22.078-3.558 10.883-0.746 18.309-1.547 22.282-2.399 4.988-1.066 11.64-3.027 19.961-5.882 9.414-3.25 16.027-5.372 19.839-6.36 0.586-0.16 2.786-0.508 6.602-1.039 2.824-0.426 4.813-1 5.957-1.719-0.719-1.843-1.957-3.843-3.719-6-0.851-1.043-2.468-2.789-4.84-5.242-2.668-2.773-5.64-5-8.921-6.68-1.465-0.96-2.426-1.535-2.879-1.718-0.348-0.188-0.641-0.321-0.879-0.403-0.403-0.16-0.641-0.132-0.719 0.082-0.055 0.161 0.172 0.68 0.68 1.559 0.023 0.027 0.211 0.469 0.558 1.32 0.215 0.508 0.414 0.922 0.602 1.239 0.426 0.64 0.984 1.336 1.68 2.082 0.746 0.828 1.16 1.586 1.238 2.281-0.266 0.133-0.52 0.199-0.758 0.199-0.137-0.027-0.496-0.121-1.082-0.281z" inkscape:connector-curvature="0"/>
          </g>
        </g>
      </g>
    </g>
    <g id="g82">
      <g id="g84" clip-path="url(#clipPath86)">
        <g id="g90" clip-path="url(#clipPath92)">
          <g id="g96" transform="translate(0 -.87708)">
            <g id="g320">
              <g id="g322" clip-path="url(#clipPath100)">
                <g id="g324">
                  <g id="g326">
                    <g id="g330" mask="url(#mask172)">
                      <g id="g334">
                        <g id="g336" clip-path="url(#clipPath218)">
                          <g id="g338">
                            <g id="g342">
                              <g id="g344" clip-path="url(#clipPath222)">
                                <g id="g346">
                                  <g id="g348">
                                    <g id="g352" mask="url(#mask244)">
                                      <g id="g356">
                                        <g id="g358" clip-path="url(#clipPath268)">
                                          <g id="g360">
                                            <g id="g364">
                                              <g id="g366" clip-path="url(#clipPath272)">
                                                <g id="g368">
                                                  <g id="g370">
                                                    <g id="g372">
                                                      <g id="g374">
                                                        <path id="path376" style="fill:url(#linearGradient124);fill-rule:evenodd" d="m258.65 97.969c-2.371-1.254-4.48-2.52-6.32-3.801-6.32-4.375-11.117-9.387-14.398-15.039-1.868-0.402-3.266-0.707-4.2-0.922-1.652-0.398-3.015-0.867-4.082-1.398 0.375 0.851 1.028 1.851 1.961 3 0.536 0.664 1.321 1.586 2.36 2.757 0.828 0.961 2.242 2.348 4.242 4.161 1.891 1.761 3.293 3.187 4.199 4.281 0.453 0.535 2.426 2.133 5.918 4.801 3.067 2.64 4.188 4.48 3.36 5.519-1.145-1.121-2.879-2.348-5.2-3.68-2.586-1.441-4.437-2.507-5.558-3.199 0.347 0.797 0.64 1.344 0.879 1.637-2.079-1.145-4.895-2.918-8.442-5.316-3.84-2.618-6.597-4.415-8.277-5.403 0.32 0.508 0.894 1.16 1.719 1.961 0.828 0.852 1.402 1.508 1.718 1.961 0.297 0.426 0.629 1.051 1 1.879 0.375 0.852 0.696 1.492 0.961 1.918-1.144-0.184-2.48-0.691-4-1.52-0.371-0.211-1.586-0.957-3.64-2.238-1.039-0.613-2.934-2.055-5.68-4.32-0.48-0.399-1.172-0.801-2.078-1.199-0.906-0.426-1.574-0.801-2-1.121-0.426-0.321-1.082-1.028-1.961-2.122-0.695-0.824-1.441-1.386-2.238-1.679-2.27-1.598-4.215-2.879-5.84-3.84-3.121-1.867-4.348-1.735-3.684 0.402 0.348 0.824 0.934 1.625 1.762 2.399 0.453 0.425 1.187 1.066 2.199 1.922 0.586 0.503 1.336 1.359 2.242 2.558 0.891 1.18 1.606 2.016 2.141 2.5-0.895-0.769-2.66-1.668-5.301-2.699-2.613-1.016-4.469-2.016-5.562-3-2.481-2.563-4.371-4.453-5.68-5.68-2.398-2.269-3.52-2.707-3.359-1.32 0.668 2.183 2.054 4.398 4.16 6.641 1.172 1.226 3.32 3.132 6.441 5.718 2.906 2.426 5 4.36 6.278 5.801 2 2.266 3.242 4.547 3.722 6.84-4.801 0.828-8.707 0.918-11.722 0.277-1.758-0.371-4.774-2.293-9.04-5.758-3.972-3.281-8.078-7.121-12.32-11.519-4.398-4.563-7.758-8.52-10.078-11.883-2.586-3.785-3.336-6.105-2.242-6.957-0.16-0.746-0.547-1.801-1.16-3.16-0.664-1.414-1.094-2.453-1.278-3.121 1.278-0.028 3.039 0.746 5.278 2.32 2.136 1.492 3.84 2.121 5.121 1.879-2.535-3.785-5.039-6.773-7.52-8.961-0.48-0.426-2.281-1.504-5.398-3.238-3.227-1.813-4.84-2.559-4.84-2.238 0.023 0.292-0.027 0.679-0.16 1.16-0.16 0.531-0.242 0.84-0.242 0.918-3.653-4.16-6.625-8.84-8.918-14.039-2.243-5.121-3.735-10.497-4.481-16.121-0.133-1.067-0.387-3.774-0.762-8.122-0.64-3.757-1.894-5.586-3.757-5.48-1.469 6.215-2.227 9.496-2.282 9.844-0.64 3.57-0.8 6.918-0.48 10.039 0.426 4.16 0.508 7.531 0.238 10.117-0.344 3.441-1.316 6.629-2.918 9.562-1.094 1.758-1.894 3.106-2.398 4.04-0.856 1.624-1.27 3.093-1.242 4.398 0.027 0.961 0.507 2.414 1.441 4.363 0.934 1.891 1.387 3.344 1.359 4.36-0.027 1.332-0.453 2.597-1.281 3.8-1.117 1.411-2 2.559-2.64 3.438-1.465 2.055-2.559 4.055-3.278 6-0.773 2.105-1.187 4.348-1.242 6.723 0 0.238 0.133 1.371 0.402 3.398 0.184 1.465 0.118 2.559-0.203 3.281-0.316 0.719-0.773 1.211-1.359 1.481-0.692 0.316-1.16 0.636-1.399 0.957-1.066 1.386-1.718 2.906-1.961 4.562-0.132 2.024-0.371 3.758-0.718 5.199-3.946-1.121-6.028-4.933-6.242-11.441 0-0.16 0.042-2.84 0.121-8.039 0.054-3.094-0.145-5.375-0.598-6.84-0.59 0.508-1.043 0.918-1.363 1.238-0.614 0.563-1.051 1.067-1.321 1.52-0.105-1.41 0.137-3.051 0.723-4.918 0.348-1.039 0.895-2.602 1.641-4.68 1.093-6.988 1-9.812-0.282-8.48-2.64 2.695-4.668 5.254-6.082 7.68-0.636 1.093-1.679 2.624-3.117 4.601-1.496 2.051-2.547 3.598-3.16 4.641-0.723 1.226-1.453 3.039-2.199 5.437-0.828 2.586-1.508 4.414-2.043 5.481-0.426 0.828-1.32 2.039-2.68 3.64-1.277 1.492-2.117 2.719-2.519 3.68-0.426 0.984-0.532 2.414-0.321 4.281 0.215 1.946 0.176 3.344-0.121 4.199-0.746 2.161-3.051 4.36-6.918 6.598-4.48 2.563-7.199 4.469-8.16 5.723-0.559-0.586-0.894-1.453-1-2.602-0.055-0.664-0.121-1.652-0.199-2.961-0.106-0.718-0.602-2.105-1.481-4.16-0.8-1.84-1.187-3.199-1.16-4.078 0.055-2.027 1.028-4.52 2.918-7.48 2.43-3.84 3.817-6.215 4.16-7.122 0.696-1.73 1.934-4.718 3.723-8.957 0.828-2.668-0.496-2.082-3.961 1.758-2.105 2.321-5.215 5.801-9.32 10.442-4.133 4.664-7.227 8.132-9.281 10.398-1.094 1.199-2.321 3-3.68 5.402-1.465 2.637-2.586 4.438-3.36 5.399-0.906 1.121-2.16 1.68-3.757 1.68-1.95-0.215-3.457-0.282-4.524-0.2-1.57 0.106-2.691 0.532-3.359 1.282-0.692 1.066-1.453 1.933-2.278 2.597-0.562 0.453-1.546 0.735-2.96 0.84-1.68 0.082-2.922 0.16-3.719 0.242-2.961 0.344-4.121 1.84-3.481 4.481 0.293 1.25 1.774 2.636 4.438 4.156 1.414 0.801 3.32 1.883 5.722 3.242 1.704 1.305 3.118 2.215 4.239 2.719 1.519 0.668 3.16 0.933 4.922 0.801 3.039-0.239 6.398-0.188 10.078 0.16 1.254 0.133 4.613 0.558 10.082 1.281 13.383 1.707 27.758 2.863 43.117 3.481 12.934 0.503 27.348 0.636 43.242 0.398 16.746-0.293 30.973-1.055 42.68-2.281 15.519-1.625 29.492-4.305 41.918-8.039 7.949-2.348 16.976-5.946 27.082-10.801 0.398-0.184 2.519-1.348 6.359-3.481 2.613-1.437 4.785-2.425 6.52-2.957l0.199-0.043c0.641-0.183 2.066-0.32 4.281-0.398 1.918-0.266 2.961-0.988 3.121-2.16 0.051-0.348-0.121-0.696-0.519-1.039-0.508-0.403-0.867-0.707-1.082-0.922l-0.559 0.48c-0.055-0.132-0.226-0.332-0.519-0.597-0.27-0.27-0.43-0.453-0.481-0.563 0 0.106-0.043 0.281-0.121 0.52-0.078 0.242-0.121 0.425-0.121 0.562-0.852-0.32-1.453-0.586-1.801-0.801-0.023 0.028-0.023 0.079 0 0.161 0.02 0.058 0.043 0.097 0.063 0.121-0.383-0.172-1.11-0.575-2.18-1.203 0.32 0.64 0.746 1.23 1.277 1.761-0.316-0.187-0.89-0.586-1.718-1.199-0.719-0.508-1.305-0.855-1.758-1.043 0.16 0.215 0.293 0.524 0.398 0.922-1.387 0.16-2.64 0.051-3.761-0.32-0.454-0.133-1.614-0.668-3.477-1.602-4.055-2.023-6.242-3.117-6.563-3.277z" inkscape:connector-curvature="0"/>
                                                      </g>
                                                    </g>
                                                  </g>
                                                </g>
                                              </g>
                                            </g>
                                          </g>
                                        </g>
                                      </g>
                                    </g>
                                  </g>
                                </g>
                              </g>
                            </g>
                          </g>
                        </g>
                      </g>
                    </g>
                  </g>
                  <g id="g378">
                    <g id="g382" mask="url(#mask294)">
                      <g id="g386">
                        <g id="g388" clip-path="url(#clipPath312)">
                          <g id="g390">
                            <g id="g394">
                              <g id="g396" clip-path="url(#clipPath316)">
                                <g id="g398">
                                  <path id="path400" style="fill-rule:evenodd;fill:#474d41" d="m264.69 95.289c-0.825-1.121-1.321-2.121-1.481-3 0.961 0.051 2.242 0.641 3.844 1.758 0.824 0.586 1.984 1.519 3.476 2.801 0.614 0.507 1.547 1.402 2.801 2.679 1.199 1.149 2.133 2 2.801 2.563 0.426 0.344 0.973 0.637 1.641 0.879 1.093 0.426 1.679 0.652 1.757 0.679 0.321-1.039-0.492-2.679-2.437-4.921l-4.199-4.2c-1.657-1.679-3.774-3.32-6.364-4.918-1.039-0.64-3.386-1.961-7.039-3.961-2.293-1.281-5.625-2.308-10-3.082-5.386-0.933-8.84-1.652-10.359-2.16-1.067-0.344-2.375-0.945-3.922-1.797-1.863-1.015-3.145-1.668-3.84-1.961-1.359-0.613-3.133-1.586-5.316-2.921-2.453-1.52-4.188-2.532-5.203-3.039-3.465-1.758-7.653-3.321-12.559-4.68-5.066-0.852-9.016-1.574-11.84-2.16-5.199-1.067-8.719-2.758-10.558-5.078l-0.442-0.602c-0.773-1.199-1.625-3.094-2.558-5.68-0.934-2.695-1.762-4.613-2.481-5.761-1.414-2.293-3.293-4.559-5.64-6.797-1.735-1.68-3.989-3.575-6.762-5.68-7.653-5.867-13.371-11.215-17.16-16.043-1.731-2.184-2.891-3.707-3.481-4.559-1.199-1.812-2.012-3.519-2.437-5.121-0.106-0.398-0.282-1.574-0.52-3.519-0.187-1.414-0.508-2.535-0.961-3.36-1.707-3.121-4.105-4.347-7.199-3.679-2.855 0.613-5.016 2.371-6.48 5.281-1.469 2.934-3.586 6.52-6.36 10.758-4.187 6.347-6.48 9.84-6.883 10.48-1.757 2.828-4.211 5.293-7.359 7.399-0.934 0.64-4 2.363-9.199 5.16-3.094 1.68-5.735 3.922-7.918 6.723-1.176 1.546-3 4.492-5.481 8.839-1.066 1.918-2.84 3.973-5.32 6.161-3.227 2.906-5.199 4.769-5.922 5.597-1.785 2.321-3.144 4.039-4.078 5.16-1.629 1.922-3.242 3.348-4.84 4.282-1.519 0.906-3.387 2.238-5.601 4-2.934 2.32-4.758 3.734-5.481 4.238-0.746 0.535-1.691 1.015-2.84 1.441-1.304 0.453-2.304 0.828-3 1.121-1.547 0.641-2.879 1.641-4 3-1.199 1.653-2.199 2.946-3 3.879-0.8 0.907-1.918 1.746-3.359 2.52-1.707 0.828-2.973 1.465-3.801 1.922-0.879 0.453-2.066 1.293-3.558 2.519-1.52 1.227-2.696 2.067-3.52 2.52-1.789 0.984-3.32 2.785-4.602 5.398-0.984 2-1.757 4.348-2.32 7.039 1.227-0.613 2.414-2.117 3.563-4.519 1.41-2.907 2.398-4.664 2.957-5.278 1.148-1.281 2.695-2.242 4.64-2.882 2.668-0.825 4.629-1.293 5.879-1.399 0.617-0.055 1.668-0.078 3.16-0.078 1.282-0.082 2.243-0.402 2.883-0.961 0.586-0.535 1.278-1.574 2.078-3.121 0.852-1.652 1.563-2.773 2.121-3.359 0.453-0.508 1.36-1.387 2.719-2.641 1.199-1.121 2.082-2.027 2.641-2.719 0.535-0.668 1.199-1.535 2-2.601 0.719-0.801 1.629-1.426 2.719-1.879 2.48-1.039 4.601-2.133 6.363-3.281 2.637-1.708 4.547-3.133 5.719-4.282 0.691-0.718 1.878-1.558 3.558-2.519 1.734-0.985 2.922-1.785 3.563-2.399 0.449-0.426 1.25-1.453 2.398-3.082 0.852-1.199 1.828-2.105 2.918-2.718 1.707-0.934 3.109-1.825 4.203-2.68 0.934-0.719 1.692-1.559 2.278-2.52 0.347-0.586 0.906-1.535 1.679-2.84 0.961 0.559 1.629 1.493 2 2.801 0.348 1.254 0.348 2.426 0 3.52-0.769 1.359-1.293 2.386-1.558 3.078-0.508 1.281 0.027 1.453 1.601 0.519 0.32-0.211 0.68-0.636 1.078-1.277 0.453-0.723 0.785-1.176 1-1.359 0.266-0.27 0.719-0.59 1.36-0.961 0.64-0.403 1.093-0.719 1.359-0.961 0.563-0.535 1.137-1.348 1.723-2.442 0.718-1.382 1.199-2.25 1.437-2.597 0.75-1.067 2.242-2.293 4.481-3.68 2.109-1.309 3.507-2.601 4.203-3.883 0.344-0.613 0.664-1.476 0.957-2.597 0.347-1.254 0.629-2.121 0.84-2.602 0.347-0.852 0.933-1.641 1.761-2.359 0.453-0.399 1.282-0.985 2.481-1.758 0.16-0.11 0.933-0.723 2.32-1.84 1.25-0.988 1.945-1.496 2.078-1.523 0.481-0.079 0.746 0.507 0.801 1.761 0 1.465 0.012 2.426 0.039 2.879 1.016-1.387 2.027-3.051 3.039-5 0.59-1.117 1.442-2.879 2.563-5.277 1.172-2.535 1.984-5.867 2.437-10 0.723-6.457 1.121-9.883 1.203-10.281 0.321-1.813 0.813-3.336 1.481-4.559 0.984-1.867 2.199-2.617 3.637-2.242 1.761 0.453 3.109 2.426 4.042 5.922 0.774 3.918 1.344 6.425 1.719 7.519 0.293 0.801 0.918 2.094 1.879 3.879 0.879 1.652 1.469 2.973 1.762 3.961 0.398 1.785 0.707 3.094 0.918 3.918 0.347 1.496 0.84 2.773 1.48 3.84 1.094 1.84 1.989 3.203 2.68 4.082 1.441 1.84 2.629 2.652 3.562 2.437-0.082-0.453-0.386-1.476-0.921-3.078-0.321-1.492-0.188-2.441 0.398-2.84 0.43-0.293 1.27-0.214 2.523 0.239 0.024 0 0.879 0.363 2.559 1.082 1.305 0.531 2.52 1.465 3.641 2.801 0.64 0.769 1.597 2.011 2.879 3.718 2.32 2.641 4.16 5.614 5.519 8.918 0.563 1.387 1.426 3.242 2.602 5.563 1.359 2.691 2.265 4.547 2.718 5.558 1.176 2.614 3.426 4.907 6.762 6.879 0.934 0.563 2.36 1.348 4.278 2.364 1.707 0.957 3.082 1.839 4.121 2.636 1.972 1.547 2.988 2.348 3.039 2.403 1.226 0.933 2.308 1.652 3.242 2.16-0.133-0.453-0.629-1.149-1.481-2.082-0.746-0.797-1.121-1.532-1.121-2.199 0.106-0.028 0.746-0.372 1.922-1.04 0.641-0.375 1.399-0.492 2.278-0.359 0.585 0.078 1.468 0.344 2.64 0.801 1.121 0.449 1.988 0.703 2.602 0.758-0.188-0.532-0.336-0.879-0.442-1.039 1.762-0.641 3.801-0.614 6.121 0.078 0.879 0.269 2.786 1.066 5.719 2.402 0.723 0.32 1.789 0.652 3.199 1 1.524 0.371 2.602 0.691 3.243 0.961 0.8 0.316 1.574 0.812 2.32 1.477 0.453 0.402 1.133 1.054 2.039 1.961 1.973 1.785 3.012 2.718 3.121 2.8 1.203 1.047 2.289 1.899 3.258 2.559-0.574-0.418-1.301-1.34-2.18-2.758-0.933-1.441-1.465-2.519-1.598-3.242 0.797 0.109 1.665 0.469 2.598 1.082 0.535 0.32 1.309 0.851 2.32 1.598 0.481 0.296 1.215 0.64 2.2 1.043 1.015 0.398 1.75 0.746 2.203 1.039 0.586 0.375 1.383 0.906 2.398 1.597 0.879 0.59 1.735 1.028 2.559 1.321 1.359 0.507 2.109 0.789 2.242 0.839 0.773 0.348 1.438 0.762 2 1.243 0.32 0.238 0.879 0.879 1.68 1.918 0.773 0.828 1.386 1.027 1.84 0.601 1.011 0.641 2.546 1.879 4.597 3.719 1.895 1.68 3.457 2.867 4.684 3.562 2.746 1.598 4.945 2.653 6.597 3.161 1.68 0.503 2.336 0.277 1.961-0.68-0.214-0.563-0.839-1.563-1.879-3-0.906-1.227-1.589-2.16-2.042-2.801z" inkscape:connector-curvature="0"/>
                                </g>
                              </g>
                            </g>
                          </g>
                        </g>
                      </g>
                    </g>
                  </g>
                </g>
              </g>
            </g>
          </g>
        </g>
      </g>
    </g>
    <g id="g402">
      <g id="g404">
        <g id="g406">
          <g id="g412">
            <path id="path420" style="fill-rule:evenodd;fill:url(#linearGradient414)" d="m90.609 120.93c-0.402 0.453-0.828 1.027-1.281 1.718 0.16-0.265 0.402-0.945 0.723-2.039l0.558 0.321zm206.68-3.762v-0.758c-0.055-0.613-0.215-1.52-0.48-2.719-0.293-1.308-0.465-2.254-0.52-2.84-0.055-0.613-0.094-1.613-0.121-3-0.106-1.199-0.371-2.121-0.797-2.761l-0.043 0.64c-0.933-2.718-2.254-5.386-3.957-8-1.789-2.773-3.707-5.027-5.762-6.761 1.414 2.961 2.399 5.187 2.961 6.683 0.934 2.481 1.547 4.852 1.84 7.117-1.148-0.48-2.109-1.679-2.879-3.597-0.429-1.043-1.015-2.547-1.761-4.52 0 1.758 0.015 3.078 0.039 3.957 0.054 1.496 0.199 2.789 0.441 3.883-1.121-0.48-2.32-0.375-3.602 0.32-1.386 0.957-2.453 1.571-3.199 1.84-1.414 0.531-2.531 0.945-3.359 1.238-1.492 0.536-2.602 0.856-3.32 0.961-0.028 0-0.985-0.171-2.879-0.519-1.618-0.289-2.418-0.27-2.403 0.058-0.054-0.585-0.16-1.406-0.316-2.46-0.082-0.934-0.082-1.758 0-2.477-1.387 2.398-2.496 4.199-3.32 5.398-1.442 2.215-3.082 3.266-4.922 3.161 0.082-0.082 0.359-0.321 0.84-0.719 0.347-0.321 0.64-0.547 0.882-0.684-3.707 1.977-8.441 3.856-14.199 5.641 0.184-0.906 0.719-1.797 1.598-2.68 0.734-0.734 1.562-1.328 2.48-1.781-0.582 0.266-2.047 0.859-4.398 1.781-1.867 0.719-3.387 1.426-4.563 2.121-3.144 1.891-5.41 3.574-6.797 5.039-0.75 0.879-1.308 1.481-1.683 1.801-0.586 0.559-1.305 0.945-2.156 1.16l0.519 0.039c-0.375 0-1.668 0.106-3.883 0.321-1.597 0.132-2.867 0.078-3.8-0.161 0.64-0.828 1.148-1.425 1.519-1.8 0.586-0.586 1.203-1.028 1.844-1.321-0.695 0.133-2.094 0.563-4.203 1.282-1.707 0.586-3.16 0.918-4.36 1-1.066 0.082-4.812 0.468-11.238 1.16-4.562 0.508-8.32 0.691-11.281 0.558 0.426-0.453 1.148-1.039 2.16-1.757-1.336-0.055-2.895 0.132-4.68 0.558-2.347 0.559-3.855 0.883-4.519 0.961 0.238-0.906 0.652-1.762 1.238-2.562 0.637-0.864 1.336-1.45 2.102-1.758h0.097c0.055 0 0.055-0.016 0-0.039-0.035 0.011-0.066 0.023-0.097 0.039-1.571 0.043-3.11 0.375-4.622 1-1.519 0.64-2.878 1.508-4.078 2.601 0-0.64 0.024-1.574 0.078-2.8-0.613 0.32-1.281 1.093-2 2.32-0.238-0.586-2.105-1.723-5.597-3.402-3.414-1.625-5.403-2.387-5.961-2.278 0.027 0 0.105 0.078 0.238 0.238-4.515-1.925-7.652-4.039-9.418-6.339 0.336 1.843 0.567 3.437 0.699 4.781-0.507-0.453-1.773-1.828-3.8-4.121-1.547-1.735-2.918-2.989-4.118-3.758 1.25 1.144 2.305 3.078 3.161 5.797 0.832 2.597 1.574 4.449 2.218 5.562-1.019-1.484-2.507-2.859-4.461-4.121-1.015-0.668-3-1.746-5.961-3.238-2.796-1.094-5-1.977-6.597-2.641-2.934-1.203-4.895-2.414-5.879-3.64 0.586 0.906 1.066 1.547 1.437 1.918-4.691-2.774-8.492-4.453-11.398-5.039 1.652 1.199 2.934 2.332 3.84 3.398 1.144 1.359 1.933 2.895 2.359 4.602-0.719-1.813-2.933-3.172-6.64-4.082-3.973-0.985-6.454-2.211-7.442-3.68-0.023 0.48 0.016 1.414 0.121 2.801-0.027-0.215-0.277-0.653-0.758-1.321-0.613-0.8-0.949-1.254-1-1.359-0.214 1.441-0.414 2.359-0.601 2.758-0.293 0.562-1.027 0.683-2.199 0.363-1.039-0.269-2.227-0.934-3.563-2-1.144-0.883-2.144-1.816-3-2.801 0.27 0.801 0.442 1.575 0.524 2.321-1.016-0.536-2.508-1.293-4.481-2.282-1.574-0.961-2.762-2.054-3.562-3.281 0 0.027 0.043 0.895 0.121 2.602-1.2-0.774-2.172-2.321-2.918-4.641-0.641-2.055-0.922-3.922-0.84-5.602-0.348 1.442-1.215 3.282-2.602 5.52-2 3.254-3.093 5.066-3.281 5.441-0.078-0.558 0-1.64 0.242-3.242-0.054 0.082-1.226 1.668-3.519 4.762-1.524 2.055-2.375 3.762-2.563 5.121-0.187 1.68 0.348 3.641 1.602 5.879 1.597 2.453 2.679 4.254 3.238 5.398-0.691-0.089-1.394-0.382-2.098-0.879 0.133 0.125 0.258 0.247 0.379 0.36 1.094 0.988 1.586 1.64 1.481 1.961-0.055 0.238-0.469 0.48-1.242 0.719-0.852 0.214-1.371 0.359-1.559 0.441-1.812 0.719-3.375 1.211-4.68 1.48-1.601 0.321-3.242 0.414-4.922 0.282-0.878-0.055-2.542-0.551-5-1.485-2.625-0.98-4.054-1.742-4.277-2.277 0.504 1.305 0.746 2.055 0.719 2.238-0.078 0.375-0.719 0.602-1.918 0.684-0.91 0.051-2.016-0.231-3.32-0.844-1.469-0.773-2.508-1.305-3.122-1.598-2.425-1.203-4.468-2.386-6.121-3.558-1.894-1.336-3.613-2.895-5.16-4.684 0 0.16 0.039 0.906 0.121 2.242 0.055 0.934 0 1.68-0.16 2.239-0.558-0.106-1.082-0.52-1.558-1.239-0.137-0.16-0.508-0.8-1.122-1.921 0.188 1.043 0.04 1.906-0.441 2.601l-0.437-0.719c0 0.051-0.829-0.132-2.481-0.562-1.68-0.399-2.629-0.664-2.84-0.801-0.242-0.133-1.867-0.746-4.883-1.84-2.718-0.957-4.105-1.558-4.16-1.797 0.028 0.879 0.137 1.52 0.321 1.918-1.227 0.055-2.36-0.547-3.399-1.8-0.906-1.118-1.465-2.332-1.68-3.637-1.175 2-1.867 4.156-2.082 6.476-0.343-0.105-0.984-0.386-1.918-0.839-0.773-0.399-1.414-0.625-1.921-0.68l0.562 1.121c-0.828-0.082-1.641-0.441-2.441-1.082-0.879-0.719-1.36-1.481-1.442-2.281-0.824 1.015-1.16 2.484-1 4.402-2.132-0.934-3.078-2.852-2.84-5.762 0.11-1.597 0.723-3.879 1.84-6.84-0.746 0.723-1.57 1.817-2.476 3.282-1.309 2.105-2.055 3.293-2.242 3.558-1.227 1.547-2.122 2.723-2.68 3.52-1.012 1.414-1.641 2.734-1.879 3.961-0.16-2.508 0.344-5.039 1.519-7.598-0.96 0.797-1.855 1.891-2.679 3.277-0.426 0.723-1.082 1.989-1.961 3.801-1.067 2.215-1.719 3.922-1.961 5.121-0.371 1.785-0.254 3.598 0.359 5.438 0.883 2.722 2.922 5.75 6.121 9.082 1.786 1.867 4.547 4.359 8.282 7.48 6.504 5.387 13.972 9.133 22.398 11.239 3.172 0.8 6.949 1.535 11.32 2.203 2.536 0.398 6.336 0.945 11.403 1.636 14.933 4.668 29.304 6.801 43.117 6.403 6.402-0.188 16.656 0.758 30.762 2.84 13.281 1.945 23.613 2.652 31 2.121 10.132-0.746 21.492-2.961 34.078-6.641 5.949-1.734 16.988-5.441 33.121-11.121l3.762-0.84c-0.161 0-0.457-0.055-0.883-0.16l6.121-2.078c2.426-0.828 7.719-2.442 15.879-4.84 7.226-2.137 16.375-5.695 27.441-10.684 3.598-1.652 6.508-3.652 8.719-6 2.746-2.902 4.105-6.101 4.078-9.597z" inkscape:connector-curvature="0"/>
          </g>
        </g>
      </g>
    </g>
  </g>
<metadata><rdf:RDF><cc:Work><dc:format>image/svg+xml</dc:format><dc:type rdf:resource="http://purl.org/dc/dcmitype/StillImage"/><cc:license rdf:resource="http://creativecommons.org/licenses/publicdomain/"/><dc:publisher><cc:Agent rdf:about="http://openclipart.org/"><dc:title>Openclipart</dc:title></cc:Agent></dc:publisher></cc:Work><cc:License rdf:about="http://creativecommons.org/licenses/publicdomain/"><cc:permits rdf:resource="http://creativecommons.org/ns#Reproduction"/><cc:permits rdf:resource="http://creativecommons.org/ns#Distribution"/><cc:permits rdf:resource="http://creativecommons.org/ns#DerivativeWorks"/></cc:License></rdf:RDF></metadata></svg>
